<svg xmlns="http://www.w3.org/2000/svg" width="30" height="37" viewBox="0 0 30 37"><g transform="translate(-866.763 -610.995)"><g transform="translate(-37 14)"><g transform="translate(-56 -38)"><g transform="translate(959.763 634.995)"><g transform="translate(0)"><path d="M19.266,0a15.01,15.01,0,0,0-15,15.02c0,7.525,9.346,17.426,13.284,21.264a2.513,2.513,0,0,0,3.473.038c3.962-3.7,13.243-13.225,13.243-21.3A15.01,15.01,0,0,0,19.266,0Z" transform="translate(-4.266 0)" fill="#fe1000"/></g></g><g transform="translate(965.836 640.409)"><path d="M16.037,13.745H2.291A2.293,2.293,0,0,1,0,11.455V2.291A2.293,2.293,0,0,1,2.291,0H16.037a2.293,2.293,0,0,1,2.291,2.291v9.164A2.293,2.293,0,0,1,16.037,13.745ZM2.291,1.145A1.147,1.147,0,0,0,1.145,2.291v9.164A1.147,1.147,0,0,0,2.291,12.6H16.037a1.147,1.147,0,0,0,1.145-1.145V2.291a1.147,1.147,0,0,0-1.145-1.145Z" transform="translate(0 3.436)" fill="#fff"/><path d="M9.164,4.581H0V2.291A2.293,2.293,0,0,1,2.291,0H6.873A2.293,2.293,0,0,1,9.164,2.291V4.58ZM2.291,1.145A1.147,1.147,0,0,0,1.145,2.291V3.436H8.019V2.291A1.147,1.147,0,0,0,6.873,1.145Z" transform="translate(4.582 0)" fill="#fff"/><path d="M5.728,9.164H3.436A1.147,1.147,0,0,1,2.291,8.019V6.873H1.145A1.147,1.147,0,0,1,0,5.728V3.436A1.147,1.147,0,0,1,1.145,2.291H2.291V1.145A1.147,1.147,0,0,1,3.436,0H5.728A1.147,1.147,0,0,1,6.873,1.145V2.291H8.019A1.147,1.147,0,0,1,9.164,3.436V5.728A1.147,1.147,0,0,1,8.019,6.873H6.873V8.019A1.147,1.147,0,0,1,5.728,9.164ZM1.145,3.436V5.728H3.436V8.019H5.728V5.728H8.019V3.436H5.728V1.145H3.436V3.436Z" transform="translate(4.582 5.727)" fill="#fff"/></g></g></g></g></svg>