<svg xmlns="http://www.w3.org/2000/svg" width="30" height="37" viewBox="0 0 30 37"><g transform="translate(-350 -596.995)"><g transform="translate(0 -38)"><g transform="translate(350 634.995)"><g transform="translate(0)"><path d="M19.266,0a15.01,15.01,0,0,0-15,15.02c0,7.525,9.346,17.426,13.284,21.264a2.513,2.513,0,0,0,3.473.038c3.962-3.7,13.243-13.225,13.243-21.3A15.01,15.01,0,0,0,19.266,0Z" transform="translate(-4.266 0)" fill="#673bb7"/></g></g><g transform="translate(358 643.544)"><g transform="translate(9.632 11.63)" fill="none" stroke="#fff" stroke-linecap="round" stroke-linejoin="round" stroke-miterlimit="10" stroke-width="1.5"><circle cx="1" cy="1" r="1" stroke="none"/><circle cx="1" cy="1" r="1.75" fill="none"/></g><g transform="translate(2.632 11.63)" fill="none" stroke="#fff" stroke-linecap="round" stroke-linejoin="round" stroke-miterlimit="10" stroke-width="1.5"><circle cx="1" cy="1" r="1" stroke="none"/><circle cx="1" cy="1" r="1.75" fill="none"/></g><path d="M0,0H10.316V4.421L1.474,5.895" transform="translate(1.947 2.946)" fill="none" stroke="#fff" stroke-linecap="round" stroke-linejoin="round" stroke-miterlimit="10" stroke-width="1.5"/><path d="M0,0S1.967,0,2.347,1.473c.22.853,1,4.463,2.253,9.4" transform="translate(-1 0)" fill="none" stroke="#fff" stroke-linecap="round" stroke-linejoin="round" stroke-miterlimit="10" stroke-width="1.5"/><path d="M0,.5H3.2" transform="translate(5.658 12.025)" fill="none" stroke="#fff" stroke-linecap="round" stroke-linejoin="round" stroke-miterlimit="10" stroke-width="1.5"/></g></g></g></svg>