<svg xmlns="http://www.w3.org/2000/svg" width="30" height="37" viewBox="0 0 30 37"><g transform="translate(-866.763 -485)"><g transform="translate(-37 14)"><g transform="translate(-56)"><g transform="translate(959.763 471)"><g transform="translate(0)"><path d="M19.266,0a15.01,15.01,0,0,0-15,15.02c0,7.525,9.346,17.426,13.284,21.264a2.513,2.513,0,0,0,3.473.038c3.962-3.7,13.243-13.225,13.243-21.3A15.01,15.01,0,0,0,19.266,0Z" transform="translate(-4.266 0)" fill="#546f7a"/></g></g><g transform="translate(919.361 477.47)"><g transform="translate(48)"><g transform="translate(0)"><path d="M60.888,0H49.841A1.847,1.847,0,0,0,48,1.841V15.1a1.737,1.737,0,0,0,.755,1.381.8.8,0,0,0-.018.092V17.86a1.281,1.281,0,0,0,1.289,1.289h.368a1.281,1.281,0,0,0,1.289-1.289v-.921h7.365v.921a1.281,1.281,0,0,0,1.289,1.289H60.7a1.281,1.281,0,0,0,1.289-1.289V16.571a1.839,1.839,0,0,0,.736-1.473V1.841A1.847,1.847,0,0,0,60.888,0ZM50.946,17.86a.542.542,0,0,1-.552.552h-.368a.542.542,0,0,1-.552-.552V16.847a1.928,1.928,0,0,0,.552.092h.921Zm10.311,0a.542.542,0,0,1-.552.552h-.368a.542.542,0,0,1-.552-.552v-.921h1.1a2.267,2.267,0,0,0,.368-.037Zm.736-2.762a1.108,1.108,0,0,1-1.1,1.1H50.025a1.3,1.3,0,0,1-1.289-1.1V11.233H61.993Zm0-4.6H48.736V3.924H61.993Zm0-7.309H48.736V1.841a1.108,1.108,0,0,1,1.1-1.1H60.888a1.108,1.108,0,0,1,1.1,1.1Z" transform="translate(-48)" fill="#fff" stroke="#fff" stroke-width="0.5"/></g></g></g><circle cx="1" cy="1" r="1" transform="translate(970 490)" fill="#fff"/><circle cx="1" cy="1" r="1" transform="translate(977 490)" fill="#fff"/></g></g></g></svg>