<svg xmlns="http://www.w3.org/2000/svg" width="30" height="37" viewBox="0 0 30 37"><g transform="translate(-566.118 -546.507)"><g transform="translate(-18 14)"><g transform="translate(-73 -19)"><g transform="translate(657.118 551.507)"><g transform="translate(0)"><path d="M19.266,0a15.01,15.01,0,0,0-15,15.02c0,7.525,9.346,17.426,13.284,21.264a2.513,2.513,0,0,0,3.473.038c3.962-3.7,13.243-13.225,13.243-21.3A15.01,15.01,0,0,0,19.266,0Z" transform="translate(-4.266)" fill="#4cb050"/></g></g><g transform="translate(664.546 557.95)"><path d="M-8.419,6.693a4.486,4.486,0,0,0,3.907,2.28A4.486,4.486,0,0,0-.585,6.659a4.466,4.466,0,0,0,.56-2.172A4.489,4.489,0,0,0-3.638.085,4.508,4.508,0,0,0-4.512,0a4.514,4.514,0,0,0-.772.066" transform="translate(15.479 6.592)" fill="none" stroke="#fff" stroke-linecap="round" stroke-linejoin="round" stroke-miterlimit="10" stroke-width="1.5"/><path d="M.5,4.487V0" transform="translate(10.467 13.072)" fill="none" stroke="#fff" stroke-linecap="round" stroke-linejoin="round" stroke-miterlimit="10" stroke-width="1.5"/><path d="M9.97,6.814c0,3.762-2.231,6.813-4.985,6.813S0,10.576,0,6.814,2.231,0,4.985,0,9.97,3.05,9.97,6.814Z" transform="translate(0 0)" fill="none" stroke="#fff" stroke-linecap="round" stroke-linejoin="round" stroke-miterlimit="10" stroke-width="1.5"/><path d="M.5,10.857V0" transform="translate(4.485 6.702)" fill="none" stroke="#fff" stroke-linecap="round" stroke-linejoin="round" stroke-miterlimit="10" stroke-width="1.5"/></g></g></g></g></svg>