<svg xmlns="http://www.w3.org/2000/svg" width="30" height="37" viewBox="0 0 30 37"><g transform="translate(-1160.763 -609)"><g transform="translate(201 138)"><g transform="translate(959.763 471)"><g transform="translate(0)"><path d="M19.266,0a15.01,15.01,0,0,0-15,15.02c0,7.525,9.346,17.426,13.284,21.264a2.513,2.513,0,0,0,3.473.038c3.962-3.7,13.243-13.225,13.243-21.3A15.01,15.01,0,0,0,19.266,0Z" transform="translate(-4.266 0)" fill="#890e4f"/></g></g></g><g transform="translate(1164.778 489.633)"><g transform="translate(1.868 134.54)"><path d="M45,277.333a2.336,2.336,0,1,0,2.336,2.336A2.339,2.339,0,0,0,45,277.333Zm0,3.737a1.4,1.4,0,1,1,1.4-1.4A1.4,1.4,0,0,1,45,281.07Z" transform="translate(-42.667 -277.333)" fill="#fff"/></g><g transform="translate(15.882 134.54)"><path d="M365,277.333a2.336,2.336,0,1,0,2.336,2.336A2.339,2.339,0,0,0,365,277.333Zm0,3.737a1.4,1.4,0,1,1,1.4-1.4A1.4,1.4,0,0,1,365,281.07Z" transform="translate(-362.667 -277.333)" fill="#fff"/></g><g transform="translate(0 128)"><path d="M19.619,131.737h-.79a1.279,1.279,0,0,1-.8-.28l-3.681-2.945A2.348,2.348,0,0,0,12.891,128H6.138a2.331,2.331,0,0,0-1.943,1.04l-.8,1.194a1.279,1.279,0,0,1-1.064.569A2.339,2.339,0,0,0,0,133.138v1.868a2.339,2.339,0,0,0,2.336,2.336.467.467,0,1,0,0-.934,1.4,1.4,0,0,1-1.4-1.4v-1.868a1.4,1.4,0,0,1,1.4-1.4,2.208,2.208,0,0,0,1.841-.986l.8-1.193a1.4,1.4,0,0,1,1.166-.624h6.753a1.41,1.41,0,0,1,.876.307l3.681,2.944a2.215,2.215,0,0,0,1.382.486h.789c1.371,0,1.868,1.4,1.868,2.336a1.357,1.357,0,0,1-1.4,1.4.467.467,0,1,0,0,.934,2.285,2.285,0,0,0,2.336-2.336A3.013,3.013,0,0,0,19.619,131.737Z" transform="translate(0 -128)" fill="#fff"/></g><g transform="translate(5.605 136.408)"><path d="M138.744,320H128.467a.467.467,0,1,0,0,.934h10.277a.467.467,0,1,0,0-.934Z" transform="translate(-128 -320)" fill="#fff"/></g><g transform="translate(10.277 129.868)"><path d="M239.8,172.534h-4.2v-1.4a.467.467,0,0,0-.934,0V173a.467.467,0,0,0,.467.467H239.8a.467.467,0,0,0,0-.934Z" transform="translate(-234.666 -170.666)" fill="#fff"/></g><g transform="translate(4.671 129.869)"><path d="M110.872,172.539h-2.981l.6-1.192a.467.467,0,1,0-.836-.418l-.934,1.868a.467.467,0,0,0,.418.675h3.737a.467.467,0,0,0,0-.934Z" transform="translate(-106.668 -170.671)" fill="#fff"/></g><g transform="translate(11.211 133.605)"><path d="M257.4,256h-.934a.467.467,0,1,0,0,.934h.934a.467.467,0,1,0,0-.934Z" transform="translate(-256 -256)" fill="#fff"/></g></g></g></svg>