<svg xmlns="http://www.w3.org/2000/svg" width="30" height="37" viewBox="0 0 30 37"><g transform="translate(-566.118 -610.995)"><g transform="translate(-18 14)"><g transform="translate(584.118 596.995)"><g transform="translate(0)"><path d="M19.266,0a15.01,15.01,0,0,0-15,15.02c0,7.525,9.346,17.426,13.284,21.264a2.513,2.513,0,0,0,3.473.038c3.962-3.7,13.243-13.225,13.243-21.3A15.01,15.01,0,0,0,19.266,0Z" transform="translate(-4.266)" fill="#fec107"/></g></g><g transform="translate(-73 -38)"><g transform="translate(663.2 642.194)"><g transform="translate(0 0.006)"><path d="M17.505,9.942V8.214a.545.545,0,0,0-.545-.545,16.434,16.434,0,0,0-3.166.289,4.919,4.919,0,0,0-2.045-1.184,3.813,3.813,0,1,0-4.9,0A4.919,4.919,0,0,0,4.8,7.958a16.437,16.437,0,0,0-3.166-.289.545.545,0,0,0-.545.545V9.942A1.637,1.637,0,0,0,0,11.483v1.09a1.637,1.637,0,0,0,1.09,1.541v1.728a.545.545,0,0,0,.545.545A12.678,12.678,0,0,1,9,18.509a.547.547,0,0,0,.6,0,12.678,12.678,0,0,1,7.361-2.124.545.545,0,0,0,.545-.545V14.113a1.637,1.637,0,0,0,1.09-1.541v-1.09A1.637,1.637,0,0,0,17.505,9.942ZM6.574,3.856A2.724,2.724,0,1,1,9.3,6.58,2.745,2.745,0,0,1,6.574,3.856ZM1.634,13.117a.545.545,0,0,1-.545-.545v-1.09a.545.545,0,1,1,1.09,0v1.09A.545.545,0,0,1,1.634,13.117Zm7.118,3.962A13.631,13.631,0,0,0,2.179,15.3V14.113a1.637,1.637,0,0,0,1.09-1.541v-1.09a1.637,1.637,0,0,0-1.09-1.541V8.766a12.314,12.314,0,0,1,6.574,1.922ZM9.3,9.744A12.947,12.947,0,0,0,6.128,8.287a3.821,3.821,0,0,1,2.08-.618h2.179a3.821,3.821,0,0,1,2.08.618A12.946,12.946,0,0,0,9.3,9.744Zm7.118,5.56a13.631,13.631,0,0,0-6.574,1.775v-6.39a12.313,12.313,0,0,1,6.574-1.922V9.942a1.637,1.637,0,0,0-1.09,1.541v1.09a1.637,1.637,0,0,0,1.09,1.541Zm1.09-2.732a.545.545,0,0,1-1.09,0v-1.09a.545.545,0,1,1,1.09,0Z" transform="translate(0 -0.006)"/></g></g><path d="M10.211-1.79,3.127-.29l7.084,1.948L17.156-.29Z" transform="translate(662.296 643.015)" fill="#fec107" stroke="#000" stroke-linecap="square" stroke-linejoin="round" stroke-width="1"/><line y2="3" transform="translate(678.5 642.5)" fill="none" stroke="#000" stroke-width="1.2"/><path d="M1.5,0,3,2H0Z" transform="translate(677 644)"/></g></g></g></svg>