<svg xmlns="http://www.w3.org/2000/svg" width="30" height="37" viewBox="0 0 30 37"><g transform="translate(-1160.763 -485)"><g transform="translate(-42 14)"><g transform="translate(243)"><g transform="translate(959.763 471)"><g transform="translate(0)"><path d="M19.266,0a15.01,15.01,0,0,0-15,15.02c0,7.525,9.346,17.426,13.284,21.264a2.513,2.513,0,0,0,3.473.038c3.962-3.7,13.243-13.225,13.243-21.3A15.01,15.01,0,0,0,19.266,0Z" transform="translate(-4.266 0)" fill="#00b1ff"/></g></g></g><g transform="translate(1207.809 476.5)"><g transform="translate(7.98 0)"><path d="M208.058.881a1.483,1.483,0,0,0-.935-.837,1.378,1.378,0,0,0-1.578.718,6.806,6.806,0,0,0-.71,3.054V13.979a.326.326,0,0,0,.006.061l.874,4.53a1.082,1.082,0,0,0,1.068.929h0a1.077,1.077,0,0,0,1.065-.913l.877-4.547a.3.3,0,0,0,.006-.061V3.816A6.8,6.8,0,0,0,208.058.881Zm.026,13.066-.874,4.533a.43.43,0,0,1-.853-.017l-.871-4.516V3.815a6.158,6.158,0,0,1,.642-2.764.725.725,0,0,1,.817-.383.837.837,0,0,1,.522.481,6.177,6.177,0,0,1,.617,2.667Z" transform="translate(-204.836 0)" fill="#fff" stroke="#fff" stroke-width="0.5"/></g><g transform="translate(0.186 6.262)"><path d="M8.472,188.011A.3.3,0,0,0,8.151,188L.356,192.673a.366.366,0,0,0-.17.316v2.155a.371.371,0,0,0,.14.3.305.305,0,0,0,.185.064.3.3,0,0,0,.114-.023l7.794-3.233a.36.36,0,0,0,.211-.337v-3.592A.369.369,0,0,0,8.472,188.011Zm-.491,3.651L.836,194.626V193.2l7.145-4.28Z" transform="translate(-0.186 -187.96)" fill="#fff" stroke="#fff" stroke-width="0.5"/></g><g transform="translate(11.229 6.263)"><path d="M298.385,192.677l-7.794-4.669a.3.3,0,0,0-.321.007.368.368,0,0,0-.158.309v3.592a.36.36,0,0,0,.21.337l7.794,3.233a.3.3,0,0,0,.114.023.3.3,0,0,0,.184-.064.371.371,0,0,0,.14-.3v-2.155A.367.367,0,0,0,298.385,192.677Zm-.479,1.952-7.145-2.963v-2.74l7.145,4.28Z" transform="translate(-290.111 -187.964)" fill="#fff" stroke="#fff" stroke-width="0.5"/></g><g transform="translate(5.058 15.649)"><path d="M132.262,413.444l-3.519.587V413.3l3.09-1.854-.334-.557-3.248,1.949a.324.324,0,0,0-.158.278v1.3a.325.325,0,0,0,.325.325.369.369,0,0,0,.053,0l3.9-.65Z" transform="translate(-128.094 -410.888)" fill="#fff" stroke="#fff" stroke-width="0.5"/></g><g transform="translate(10.525 15.649)"><path d="M275.776,412.837l-3.248-1.949-.334.557,3.09,1.854v.731l-3.519-.587-.107.641,3.9.649a.327.327,0,0,0,.053,0,.325.325,0,0,0,.324-.325v-1.3A.325.325,0,0,0,275.776,412.837Z" transform="translate(-271.659 -410.888)" fill="#fff" stroke="#fff" stroke-width="0.5"/></g></g></g></g></svg>