<svg xmlns="http://www.w3.org/2000/svg" width="30" height="37" viewBox="0 0 30 37"><g transform="translate(-350 -471)"><g transform="translate(350 471)"><g transform="translate(0)"><path d="M19.266,0a15.01,15.01,0,0,0-15,15.02c0,7.525,9.346,17.426,13.284,21.264a2.513,2.513,0,0,0,3.473.038c3.962-3.7,13.243-13.225,13.243-21.3A15.01,15.01,0,0,0,19.266,0Z" transform="translate(-4.266 0)" fill="#065df3"/></g></g><path d="M20.6,22.272a8.325,8.325,0,0,0,3.412-6.913,7.99,7.99,0,0,0-4.272-7s-.81,1.793-4.283,10.062C12.389,10.082,11.7,8.359,11.688,8.364a7.675,7.675,0,0,0-4.688,7,8.234,8.234,0,0,0,3.617,6.914" transform="translate(349.529 470.157)" fill="none" stroke="#fff" stroke-linecap="round" stroke-width="2" fill-rule="evenodd"/></g></svg>