<svg xmlns="http://www.w3.org/2000/svg" width="30" height="37" viewBox="0 0 30 37"><g transform="translate(-1160.763 -546.507)"><g transform="translate(-42 14)"><g transform="translate(243 -19)"><g transform="translate(959.763 551.507)"><g transform="translate(0)"><path d="M19.266,0a15.01,15.01,0,0,0-15,15.02c0,7.525,9.346,17.426,13.284,21.264a2.513,2.513,0,0,0,3.473.038c3.962-3.7,13.243-13.225,13.243-21.3A15.01,15.01,0,0,0,19.266,0Z" transform="translate(-4.266 0)" fill="#1a237e"/></g></g></g><path d="M90.33,15.326l-.682-2.275a.281.281,0,0,0-.35-.189l-2.275.682a.281.281,0,0,0-.053.517l.833.449a5.307,5.307,0,0,1-3.963,2.732v-9.3h1.7a1.139,1.139,0,1,0,0-1.407h-1.7V4.59a2.349,2.349,0,1,0-1.407,0V6.532h-1.7a1.139,1.139,0,1,0,0,1.407h1.7v9.3A5.307,5.307,0,0,1,78.47,14.51l.833-.449a.281.281,0,0,0-.053-.517l-2.275-.682a.281.281,0,0,0-.35.189l-.682,2.275a.281.281,0,0,0,.4.329l.882-.475a6.723,6.723,0,0,0,2.355,2.5c1.718,1.124,2.661,1.756,3.048,2.763.073.189.192.44.5.44s.432-.251.5-.44c.388-1.007,1.33-1.64,3.048-2.763a6.723,6.723,0,0,0,2.355-2.5l.882.475a.281.281,0,0,0,.4-.329ZM83.136,3.291a.942.942,0,1,1,.942-.942A.943.943,0,0,1,83.136,3.291Z" transform="translate(1134.376 538.059)" fill="#fff"/></g></g></svg>