<svg xmlns="http://www.w3.org/2000/svg" width="40" height="44.414" viewBox="0 0 40 44.414"><g transform="translate(-1405 -481)"><g transform="translate(218 -23)"><circle cx="20" cy="20" r="20" transform="translate(1187 504)" fill="#e94200"/><rect width="8" height="8" transform="translate(1207 537.101) rotate(45)" fill="#e94200"/><g transform="translate(1192.517 509.517)"><path d="M134.871,177.763h16.952a15.01,15.01,0,0,0-8.862-8.09Z" transform="translate(-124.149 -168.877)" fill="#fff"/><path d="M130.877,178.364H110.887a1.153,1.153,0,0,1-.815-1.969l8.792-8.792A14.479,14.479,0,0,0,102.7,185.061H122.9a1.154,1.154,0,0,1,.816,1.969l-9.206,9.207a14.49,14.49,0,0,0,16.364-17.873Z" transform="translate(-102.357 -167.459)" fill="#fff"/><path d="M122.655,224.668H105.387a15.013,15.013,0,0,0,8.794,8.474Z" transform="translate(-104.297 -205.063)" fill="#fff"/></g></g></g></svg>