<svg xmlns="http://www.w3.org/2000/svg" width="30" height="37" viewBox="0 0 30 37"><g transform="translate(-866.763 -546.507)"><g transform="translate(-37 14)"><g transform="translate(-56 -19)"><g transform="translate(959.763 551.507)"><g transform="translate(0)"><path d="M19.266,0a15.01,15.01,0,0,0-15,15.02c0,7.525,9.346,17.426,13.284,21.264a2.513,2.513,0,0,0,3.473.038c3.962-3.7,13.243-13.225,13.243-21.3A15.01,15.01,0,0,0,19.266,0Z" transform="translate(-4.266 0)" fill="#00bcd5"/></g></g><g transform="translate(964.835 538.12)"><circle cx="0.805" cy="0.805" r="0.805" transform="translate(5.146 28.448)" fill="#f8fcfe" stroke="#fff" stroke-width="0.5"/><circle cx="0.805" cy="0.805" r="0.805" transform="translate(13.601 28.448)" fill="#f8fcfe" stroke="#fff" stroke-width="0.5"/><path d="M20.858,30c0-1.166-1.389-2.138-2.5-2.336v-.352A8.181,8.181,0,1,0,2,27.313v.352c-1.11.2-2.471,1.17-2.471,2.336s1.376,2.154,2.5,2.341A4.743,4.743,0,0,0,4.484,36.3,11.747,11.747,0,0,0,10.178,37.4,11.748,11.748,0,0,0,15.872,36.3a4.743,4.743,0,0,0,2.459-3.962C19.454,32.155,20.858,31.177,20.858,30ZM.364,30c0-.7.989-1.294,1.633-1.477v2.955C1.353,31.3.364,30.7.364,30Zm17.157,1.682a4.068,4.068,0,0,1-2.059,3.891,10.985,10.985,0,0,1-5.283.988,10.985,10.985,0,0,1-5.283-.988,4.067,4.067,0,0,1-2.06-3.891v-4.37a7.356,7.356,0,0,1,5.233-7.034,3.316,3.316,0,0,1,3.531,2.9,1.674,1.674,0,0,1-1.673,1.673,1.256,1.256,0,0,1-1.254-1.254.921.921,0,0,1,.92-.92.419.419,0,0,0,0-.838,1.76,1.76,0,0,0-1.758,1.758,2.1,2.1,0,0,0,2.092,2.092,2.513,2.513,0,0,0,2.511-2.511,3.589,3.589,0,0,0-1.169-2.5,4.263,4.263,0,0,0-.989-.7,7.351,7.351,0,0,1,7.242,7.342v4.37Zm.838-.2V28.524c.644.183,1.66.776,1.66,1.477S19,31.3,18.359,31.478Z" fill="#f8fcfe" stroke="#fff" stroke-width="0.5"/><path d="M152.879,252.983a2.294,2.294,0,0,1-3.241,0,.419.419,0,1,0-.593.593,3.133,3.133,0,0,0,4.426,0,.419.419,0,1,0-.593-.593Z" transform="translate(-141.081 -221.486)" fill="#f8fcfe" stroke="#fff" stroke-width="0.5"/></g></g></g></g></svg>