<svg xmlns="http://www.w3.org/2000/svg" width="30" height="37" viewBox="0 0 30 37"><g transform="translate(-350 -532.507)"><g transform="translate(0 -19)"><g transform="translate(350 551.507)"><g transform="translate(0)"><path d="M19.266,0a15.01,15.01,0,0,0-15,15.02c0,7.525,9.346,17.426,13.284,21.264a2.513,2.513,0,0,0,3.473.038c3.962-3.7,13.243-13.225,13.243-21.3A15.01,15.01,0,0,0,19.266,0Z" transform="translate(-4.266 0)" fill="#ff9700"/></g></g><g transform="translate(358.526 558.236)"><path d="M12.023,4.449C12.023.8,9.332,0,6.012,0S0,.8,0,4.449V8.416H12.023Z" transform="translate(12.023 15.879) rotate(180)" fill="none" stroke="#fff" stroke-linecap="round" stroke-linejoin="round" stroke-miterlimit="10" stroke-width="1.5"/><path d="M3.6,3.847V2.4C3.6,1.14,3.065,0,1.8,0S0,.539,0,1.8s0,1.8,0,1.8" transform="translate(15.63 9.87) rotate(90)" fill="none" stroke="#fff" stroke-linecap="round" stroke-linejoin="round" stroke-miterlimit="10" stroke-width="1.5"/><path d="M.5,5.084V0" transform="translate(5.703 -1.229)" fill="none" stroke="#fff" stroke-linecap="round" stroke-linejoin="round" stroke-miterlimit="10" stroke-width="1.5"/><path d="M.5,1.8V0" transform="translate(9.118 2.052)" fill="none" stroke="#fff" stroke-linecap="round" stroke-linejoin="round" stroke-miterlimit="10" stroke-width="1.5"/><path d="M.5,3.607V0" transform="translate(1.905 0.249)" fill="none" stroke="#fff" stroke-linecap="round" stroke-linejoin="round" stroke-miterlimit="10" stroke-width="1.5"/></g></g></g></svg>