<svg xmlns="http://www.w3.org/2000/svg" width="51.363" height="51.594" viewBox="0 0 51.363 51.594"><g transform="translate(0 0)"><path d="M12.608,24.431h5.775V3.148H12.608ZM9.453,27.465H21.536V.118H9.453Z" transform="translate(5.722 -0.118)" fill="#072833" fill-rule="evenodd"/><path d="M.136,21.757H51.5V18.736H.136Z" transform="translate(-0.136 11.589)" fill="#072833" fill-rule="evenodd"/><path d="M3.28,31.232H18.126V25.464H3.28ZM.136,37.673H3.28V34.25H21.271V22.444H.136v15.23Z" transform="translate(-0.136 13.921)" fill="#072833" fill-rule="evenodd"/><path d="M27.7,3.148V27.464h3.153V9.214L36.627,3.15V27.464h3.156V.118H35.351l-4.5,4.71V.118h-4.43L18.768,8.067v19.4h3.157V9.215Z" transform="translate(11.579 -0.118)" fill="#072833" fill-rule="evenodd"/><path d="M18.145,31.232H26.9V25.464h-8.76Zm12.039,0H39.01V25.464H30.184ZM15,34.25H26.9v3.423h3.279V34.25h11.97V22.444H15V34.25Z" transform="translate(9.21 13.921)" fill="#072833" fill-rule="evenodd"/><path d="M3.293,9.215,9.066,3.15V24.431H3.293ZM9.066,27.464h3.156V.118H7.791L.136,8.067v19.4Z" transform="translate(-0.136 -0.118)" fill="#072833" fill-rule="evenodd"/></g></svg>