<svg xmlns="http://www.w3.org/2000/svg" width="121.482" height="74.621" viewBox="0 0 121.482 74.621"><g transform="translate(0.112 0)"><path d="M9.674,7.662l14.96-6.384a15.921,15.921,0,0,1,12.474-.011l46.147,19.6a15.924,15.924,0,0,1,9.7,14.656v21.39A15.923,15.923,0,0,1,77.03,72.835H15.924A15.924,15.924,0,0,1,0,56.911v-34.6A15.923,15.923,0,0,1,9.674,7.662" transform="translate(0 0)" fill="#fef0e5"/><path d="M8,4A4,4,0,1,1,4,0,4,4,0,0,1,8,4Z" transform="translate(112.376 62.185)" fill="none" stroke="#3b3d52" stroke-linecap="round" stroke-linejoin="round" stroke-miterlimit="10" stroke-width="2"/><path d="M.5,4V0" transform="translate(115.873 67.959)" fill="none" stroke="#3b3d52" stroke-linecap="round" stroke-linejoin="round" stroke-miterlimit="10" stroke-width="2"/><path d="M18.655.5H0" transform="translate(87.058 27.039)" fill="none" stroke="#3b3d52" stroke-linecap="round" stroke-linejoin="round" stroke-miterlimit="10" stroke-width="2"/><path d="M36.422.5H0" transform="translate(80.84 29.926)" fill="none" stroke="#3b3d52" stroke-linecap="round" stroke-linejoin="round" stroke-miterlimit="10" stroke-width="2"/><path d="M23.1.5H0" transform="translate(83.505 33.258)" fill="none" stroke="#3b3d52" stroke-linecap="round" stroke-linejoin="round" stroke-miterlimit="10" stroke-width="2"/><path d="M85.281,52.412H0V12.437L23.1,0,45.306,11.548V23.985l11.548-6.218L68.4,23.985v8l8-4.442,8.883,4.442Z" transform="translate(16.879 22.209)" fill="#fff"/><path d="M0,12.437,22.742,0" transform="translate(16.879 22.209)" fill="none" stroke="#e94200" stroke-linecap="round" stroke-linejoin="round" stroke-miterlimit="10" stroke-width="2"/><path d="M0,6.218,11.371,0" transform="translate(62.362 39.976)" fill="none" stroke="#e94200" stroke-linecap="round" stroke-linejoin="round" stroke-miterlimit="10" stroke-width="2"/><path d="M0,4.664,8.529,0" transform="translate(85.103 50.025)" fill="none" stroke="#e94200" stroke-linecap="round" stroke-linejoin="round" stroke-miterlimit="10" stroke-width="2"/><path d="M22.742,11.726,0,0V49.747" transform="translate(39.62 22.209)" fill="none" stroke="#e94200" stroke-linecap="round" stroke-linejoin="round" stroke-miterlimit="10" stroke-width="2"/><path d="M11.371,5.864,0,0" transform="translate(73.733 39.798)" fill="none" stroke="#e94200" stroke-linecap="round" stroke-linejoin="round" stroke-miterlimit="10" stroke-width="2"/><path d="M8.528,4.4,0,0" transform="translate(93.632 50.058)" fill="none" stroke="#e94200" stroke-linecap="round" stroke-linejoin="round" stroke-miterlimit="10" stroke-width="2"/><path d="M.5,0V37.31" transform="translate(61.862 34.646)" fill="none" stroke="#e94200" stroke-linecap="round" stroke-linejoin="round" stroke-miterlimit="10" stroke-width="2"/><path d="M.5,0V31.98" transform="translate(73.233 39.976)" fill="none" stroke="#e94200" stroke-linecap="round" stroke-linejoin="round" stroke-miterlimit="10" stroke-width="2"/><path d="M.5,0V25.762" transform="translate(84.603 46.194)" fill="none" stroke="#e94200" stroke-linecap="round" stroke-linejoin="round" stroke-miterlimit="10" stroke-width="2"/><path d="M.5,0V21.32" transform="translate(93.132 50.636)" fill="none" stroke="#e94200" stroke-linecap="round" stroke-linejoin="round" stroke-miterlimit="10" stroke-width="2"/><path d="M.5,0V16.879" transform="translate(101.66 55.078)" fill="none" stroke="#e94200" stroke-linecap="round" stroke-linejoin="round" stroke-miterlimit="10" stroke-width="2"/><path d="M.5,0V37.31" transform="translate(16.379 34.646)" fill="none" stroke="#e94200" stroke-linecap="round" stroke-linejoin="round" stroke-miterlimit="10" stroke-width="2"/><path d="M8.883,7.848c0,4.333-1.988,7.847-4.442,7.847S0,12.181,0,7.848,1.988,0,4.442,0,8.883,3.513,8.883,7.848Z" transform="translate(0.889 52.758)" fill="none" stroke="#3b3d52" stroke-linecap="round" stroke-linejoin="round" stroke-miterlimit="10" stroke-width="2"/><path d="M.5,11.45V0" transform="translate(4.83 60.506)" fill="none" stroke="#3b3d52" stroke-linecap="round" stroke-linejoin="round" stroke-miterlimit="10" stroke-width="2"/></g></svg>