<svg xmlns="http://www.w3.org/2000/svg" width="99.084" height="72.903" viewBox="0 0 99.084 72.903"><g transform="translate(0 0)"><path d="M9.674,7.662,24.633,1.278a15.921,15.921,0,0,1,12.474-.011l46.147,19.6a15.923,15.923,0,0,1,9.7,14.656v21.39A15.924,15.924,0,0,1,77.029,72.835H15.924A15.923,15.923,0,0,1,0,56.911v-34.6A15.922,15.922,0,0,1,9.674,7.662" transform="translate(0 0)" fill="#fef0e5"/><path d="M0,22.763H36.421V0H0Z" transform="translate(61.297 48.964)" fill="none" stroke="#3b3d52" stroke-linecap="round" stroke-linejoin="round" stroke-miterlimit="10" stroke-width="2"/><path d="M0,.5H4.553" transform="translate(77.23 59.846)" fill="none" stroke="#3b3d52" stroke-linecap="round" stroke-linejoin="round" stroke-miterlimit="10" stroke-width="2"/><g transform="translate(5.603 25.762)"><path d="M36.422,0A36.26,36.26,0,0,1,18.211,4.873,36.26,36.26,0,0,1,0,0" transform="translate(55.692 34.264)" fill="none" stroke="#3b3d52" stroke-linecap="round" stroke-linejoin="round" stroke-miterlimit="10" stroke-width="2"/><path d="M0,4.553H13.658V0H0Z" transform="translate(67.075 18.649)" fill="none" stroke="#3b3d52" stroke-linecap="round" stroke-linejoin="round" stroke-miterlimit="10" stroke-width="2"/><path d="M11.089,16.267a1.824,1.824,0,0,1-.015-2.176A69.4,69.4,0,0,1,25.2.1Q24.137,0,23.07,0A23.086,23.086,0,0,0,.372,27.215,1.778,1.778,0,0,0,2.351,28.66q.585-.076,1.173-.147A166.177,166.177,0,0,1,29.139,27.47c1.548.057,3.122.136,4.677.235,1.545,0,2.359,1.44,1.3,2.866l-.139.182A69.212,69.212,0,0,1,20.578,46a23.517,23.517,0,0,0,2.492.136A23.064,23.064,0,0,0,45.864,19.517a1.791,1.791,0,0,0-1.551-1.5,177.854,177.854,0,0,0-31.653-.986,1.775,1.775,0,0,1-1.571-.76" transform="translate(0 0)" fill="#fff"/><path d="M11.089,16.267a1.824,1.824,0,0,1-.015-2.176A69.4,69.4,0,0,1,25.2.1Q24.137,0,23.07,0A23.086,23.086,0,0,0,.372,27.215,1.778,1.778,0,0,0,2.351,28.66q.585-.076,1.173-.147A166.177,166.177,0,0,1,29.139,27.47c1.548.057,3.122.136,4.677.235,1.545,0,2.359,1.44,1.3,2.866l-.139.182A69.212,69.212,0,0,1,20.578,46a23.517,23.517,0,0,0,2.492.136A23.064,23.064,0,0,0,45.864,19.517a1.791,1.791,0,0,0-1.551-1.5,177.854,177.854,0,0,0-31.653-.986A1.775,1.775,0,0,1,11.089,16.267Z" transform="translate(0 0)" fill="none" stroke="#e94200" stroke-linecap="round" stroke-linejoin="round" stroke-miterlimit="10" stroke-width="2"/><path d="M10.792,9.632A23.15,23.15,0,0,0,0,0" transform="translate(32.255 1.903)" fill="none" stroke="#e94200" stroke-linecap="round" stroke-linejoin="round" stroke-miterlimit="10" stroke-width="2"/><path d="M0,0A23.154,23.154,0,0,0,10.574,9.564" transform="translate(3.068 34.563)" fill="none" stroke="#e94200" stroke-linecap="round" stroke-linejoin="round" stroke-miterlimit="10" stroke-width="2"/></g></g></svg>