<svg xmlns="http://www.w3.org/2000/svg" width="92.954" height="73.111" viewBox="0 0 92.954 73.111"><g transform="translate(0 0)"><path d="M9.674,7.662,24.633,1.278a15.921,15.921,0,0,1,12.474-.011l46.147,19.6a15.923,15.923,0,0,1,9.7,14.656v21.39A15.924,15.924,0,0,1,77.029,72.835H15.924A15.923,15.923,0,0,1,0,56.911v-34.6A15.922,15.922,0,0,1,9.674,7.662" transform="translate(0)" fill="#fef0e5"/><path d="M0,2.7,4.676.706A8.878,8.878,0,0,1,11.6.7L25.22,6.484" transform="translate(6.276 21.166)" fill="none" stroke="#e94200" stroke-linecap="round" stroke-linejoin="round" stroke-miterlimit="10" stroke-width="2"/><path d="M15.324,45.627v-24.7h7.253a4.074,4.074,0,0,0,4.073-4.074V9.9a4.074,4.074,0,0,0-2.481-3.75L10.446.324a4.077,4.077,0,0,0-3.191,0l-4.78,2.04A4.075,4.075,0,0,0,0,6.113V16.851a4.074,4.074,0,0,0,4.074,4.074h7.252V31.635H8.994a2,2,0,0,0,0,4h2.332v4h-5a2,2,0,0,0,0,4h5v2a2,2,0,0,0,4,0" transform="translate(5.568 24.485)" fill="#fff"/><path d="M15.324,45.627v-24.7h7.253a4.074,4.074,0,0,0,4.073-4.074V9.9a4.074,4.074,0,0,0-2.481-3.75L10.446.324a4.077,4.077,0,0,0-3.191,0l-4.78,2.04A4.075,4.075,0,0,0,0,6.113V16.851a4.074,4.074,0,0,0,4.074,4.074h7.252V31.635H8.994a2,2,0,0,0,0,4h2.332v4h-5a2,2,0,0,0,0,4h5v2a2,2,0,0,0,4,0Z" transform="translate(5.568 24.485)" fill="none" stroke="#e94200" stroke-linecap="round" stroke-linejoin="round" stroke-miterlimit="10" stroke-width="2"/><path d="M0,.5H10.585" transform="translate(14.229 44.91)" fill="none" stroke="#e94200" stroke-linecap="round" stroke-linejoin="round" stroke-miterlimit="10" stroke-width="2"/><path d="M2,4A2,2,0,1,1,4,2,2,2,0,0,1,2,4Z" transform="translate(16.895 32.135)" fill="none" stroke="#e94200" stroke-linecap="round" stroke-linejoin="round" stroke-miterlimit="10" stroke-width="2"/><path d="M0,23.985V0H21.32V23.985" transform="translate(47.082 47.971)" fill="none" stroke="#3b3d52" stroke-linecap="round" stroke-linejoin="round" stroke-miterlimit="10" stroke-width="2"/><path d="M.5,0V23.985" transform="translate(57.242 47.971)" fill="none" stroke="#3b3d52" stroke-linecap="round" stroke-linejoin="round" stroke-miterlimit="10" stroke-width="2"/><path d="M0,12.437V0H8" transform="translate(42.64 43.529)" fill="none" stroke="#3b3d52" stroke-linecap="round" stroke-linejoin="round" stroke-miterlimit="10" stroke-width="2"/><path d="M.5,17.767V0" transform="translate(72.344 54.189)" fill="none" stroke="#3b3d52" stroke-linecap="round" stroke-linejoin="round" stroke-miterlimit="10" stroke-width="2"/><path d="M.5,0V.888" transform="translate(60.796 63.961)" fill="none" stroke="#3b3d52" stroke-linecap="round" stroke-linejoin="round" stroke-miterlimit="10" stroke-width="2"/><path d="M.5,0V.888" transform="translate(53.689 63.961)" fill="none" stroke="#3b3d52" stroke-linecap="round" stroke-linejoin="round" stroke-miterlimit="10" stroke-width="2"/></g></svg>