<svg xmlns="http://www.w3.org/2000/svg" width="92.954" height="73.845" viewBox="0 0 92.954 73.845"><g transform="translate(0 0)"><path d="M9.674,7.662,24.633,1.278a15.921,15.921,0,0,1,12.474-.011l46.147,19.6a15.923,15.923,0,0,1,9.7,14.656v21.39A15.924,15.924,0,0,1,77.029,72.835H15.924A15.923,15.923,0,0,1,0,56.911v-34.6A15.922,15.922,0,0,1,9.674,7.662" transform="translate(0 0)" fill="#fef0e5"/><path d="M.5,15.1V0" transform="translate(19.043 57.743)" fill="none" stroke="#e94200" stroke-linecap="round" stroke-linejoin="round" stroke-miterlimit="10" stroke-width="2"/><path d="M0,33.259v0l7.33-1.513A18.4,18.4,0,0,1,0,33.259ZM17.487,18.616h0L17.645,0c.139,1.543.251,3.243.336,5.055A66.845,66.845,0,0,1,17.487,18.616Z" transform="translate(28.388 30.718)" fill="none" stroke="#3b3d52" stroke-linecap="round" stroke-linejoin="round" stroke-miterlimit="10" stroke-width="2"/><path d="M28.092,30.312c-4.074,6.943-13.232,9.137-20.453,4.9s-9.773-13.3-5.7-20.246S27.774-.3,28.3.008s3.87,23.361-.205,30.3" transform="translate(11.988 22.171)" fill="#fff"/><path d="M28.092,30.312c-4.074,6.943-13.232,9.137-20.453,4.9s-9.773-13.3-5.7-20.246S27.774-.3,28.3.008,32.166,23.369,28.092,30.312Z" transform="translate(11.988 22.171)" fill="none" stroke="#e94200" stroke-linecap="round" stroke-linejoin="round" stroke-miterlimit="10" stroke-width="2"/><path d="M0,34.2,20.068,0" transform="translate(19.921 22.682)" fill="none" stroke="#e94200" stroke-linecap="round" stroke-linejoin="round" stroke-miterlimit="10" stroke-width="2"/><path d="M10.885,32.215A13.76,13.76,0,0,1,0,27l10.886,5.218ZM8.278,1.587,2.782,0c1.506.356,3.3.875,5.5,1.585Z" transform="translate(2.505 31.437)" fill="none" stroke="#3b3d52" stroke-linecap="round" stroke-linejoin="round" stroke-miterlimit="10" stroke-width="2"/><path d="M18.5,7.329a9.7,9.7,0,0,1-1.88,13.581A9.7,9.7,0,0,1,2.972,19.563C-.277,15.441-.164.257.146.012s15.1,3.194,18.35,7.316" transform="translate(3.022 36.119)" fill="#fff"/><path d="M18.5,7.329a9.7,9.7,0,0,1-1.88,13.581A9.7,9.7,0,0,1,2.972,19.563C-.277,15.441-.164.257.146.012S15.247,3.207,18.5,7.329Z" transform="translate(3.022 36.119)" fill="none" stroke="#e94200" stroke-linecap="round" stroke-linejoin="round" stroke-miterlimit="10" stroke-width="2"/><path d="M16,20.3,0,0" transform="translate(3.403 36.429)" fill="none" stroke="#e94200" stroke-linecap="round" stroke-linejoin="round" stroke-miterlimit="10" stroke-width="2"/></g></svg>