<svg xmlns="http://www.w3.org/2000/svg" width="98.07" height="73.845" viewBox="0 0 98.07 73.845"><g transform="translate(0.999 0)"><path d="M9.674,7.662l14.96-6.384a15.921,15.921,0,0,1,12.474-.011l46.147,19.6a15.924,15.924,0,0,1,9.7,14.656v21.39A15.923,15.923,0,0,1,77.03,72.835H15.924A15.924,15.924,0,0,1,0,56.911v-34.6A15.923,15.923,0,0,1,9.674,7.662" transform="translate(0 0)" fill="#fef0e5"/><path d="M22.653,0C9.651,0,0,8.763,0,21.764S9.651,41.752,22.653,41.752s23.541-6.986,23.541-19.988H23.1Z" transform="translate(0.889 23.097)" fill="#fff"/><path d="M22.653,0C9.651,0,0,8.763,0,21.764S9.651,41.752,22.653,41.752s23.541-6.986,23.541-19.988" transform="translate(0.889 23.097)" fill="none" stroke="#e94200" stroke-linecap="round" stroke-linejoin="round" stroke-miterlimit="10" stroke-width="2"/><path d="M8.883,4.442A4.442,4.442,0,1,1,4.442,0,4.441,4.441,0,0,1,8.883,4.442" transform="translate(0 63.961)" fill="#fff"/><path d="M8.883,4.442A4.442,4.442,0,1,1,4.442,0,4.441,4.441,0,0,1,8.883,4.442Z" transform="translate(0 63.961)" fill="none" stroke="#e94200" stroke-linecap="round" stroke-linejoin="round" stroke-miterlimit="10" stroke-width="2"/><path d="M11.548,0,0,13.325" transform="translate(4.442 55.078)" fill="none" stroke="#e94200" stroke-linecap="round" stroke-linejoin="round" stroke-miterlimit="10" stroke-width="2"/><path d="M0,.5H5.33" transform="translate(13.326 54.578)" fill="none" stroke="#e94200" stroke-linecap="round" stroke-linejoin="round" stroke-miterlimit="10" stroke-width="2"/><path d="M11.548,0,0,13.325" transform="translate(37.311 36.423)" fill="none" stroke="#e94200" stroke-linecap="round" stroke-linejoin="round" stroke-miterlimit="10" stroke-width="2"/><path d="M0,.5H5.33" transform="translate(46.194 35.923)" fill="none" stroke="#e94200" stroke-linecap="round" stroke-linejoin="round" stroke-miterlimit="10" stroke-width="2"/><path d="M0,4.442A4.442,4.442,0,1,0,4.442,0,4.441,4.441,0,0,0,0,4.442" transform="translate(38.199 63.961)" fill="#fff"/><path d="M0,4.442A4.442,4.442,0,1,0,4.442,0,4.441,4.441,0,0,0,0,4.442Z" transform="translate(38.199 63.961)" fill="none" stroke="#e94200" stroke-linecap="round" stroke-linejoin="round" stroke-miterlimit="10" stroke-width="2"/><path d="M0,0,11.548,13.325" transform="translate(31.092 55.078)" fill="none" stroke="#e94200" stroke-linecap="round" stroke-linejoin="round" stroke-miterlimit="10" stroke-width="2"/><path d="M5.33.5H0" transform="translate(28.427 54.578)" fill="none" stroke="#e94200" stroke-linecap="round" stroke-linejoin="round" stroke-miterlimit="10" stroke-width="2"/><path d="M46.194.5H0" transform="translate(0.889 43.918)" fill="none" stroke="#e94200" stroke-linecap="round" stroke-linejoin="round" stroke-miterlimit="10" stroke-width="2"/><path d="M.5,21.32V0" transform="translate(23.486 23.097)" fill="none" stroke="#e94200" stroke-linecap="round" stroke-linejoin="round" stroke-miterlimit="10" stroke-width="2"/><path d="M.5,0V14.213" transform="translate(19.932 23.986)" fill="none" stroke="#e94200" stroke-linecap="round" stroke-linejoin="round" stroke-miterlimit="10" stroke-width="2"/><path d="M.5,2.665V0" transform="translate(19.932 41.753)" fill="none" stroke="#e94200" stroke-linecap="round" stroke-linejoin="round" stroke-miterlimit="10" stroke-width="2"/><path d="M.5,0V25.844" transform="translate(61.684 46.598)" fill="none" stroke="#3b3d52" stroke-linecap="round" stroke-linejoin="round" stroke-miterlimit="10" stroke-width="2"/><path d="M.5,0V25.844" transform="translate(73.529 46.598)" fill="none" stroke="#3b3d52" stroke-linecap="round" stroke-linejoin="round" stroke-miterlimit="10" stroke-width="2"/><path d="M2.692,0,0,25.844" transform="translate(89.643 46.598)" fill="none" stroke="#3b3d52" stroke-linecap="round" stroke-linejoin="round" stroke-miterlimit="10" stroke-width="2"/><path d="M0,0,3.608,25.844" transform="translate(92.334 46.598)" fill="none" stroke="#3b3d52" stroke-linecap="round" stroke-linejoin="round" stroke-miterlimit="10" stroke-width="2"/><path d="M0,.5H30.149" transform="translate(62.184 46.978)" fill="none" stroke="#3b3d52" stroke-linecap="round" stroke-linejoin="round" stroke-miterlimit="10" stroke-width="2"/><path d="M0,3.043H8.076V0H0Z" transform="translate(78.335 61.673)" fill="none" stroke="#3b3d52" stroke-linecap="round" stroke-linejoin="round" stroke-miterlimit="10" stroke-width="2"/><path d="M.5,0V13.459" transform="translate(78.913 47.675)" fill="none" stroke="#3b3d52" stroke-linecap="round" stroke-linejoin="round" stroke-miterlimit="10" stroke-width="2"/><path d="M.5,0V14" transform="translate(85.054 47.675)" fill="none" stroke="#3b3d52" stroke-linecap="round" stroke-linejoin="round" stroke-miterlimit="10" stroke-width="2"/><path d="M0,.5H11.844" transform="translate(62.184 50.944)" fill="none" stroke="#3b3d52" stroke-linecap="round" stroke-linejoin="round" stroke-miterlimit="10" stroke-width="2"/><path d="M0,.5H11.844" transform="translate(62.184 54.578)" fill="none" stroke="#3b3d52" stroke-linecap="round" stroke-linejoin="round" stroke-miterlimit="10" stroke-width="2"/><path d="M0,.5H11.844" transform="translate(62.184 58.212)" fill="none" stroke="#3b3d52" stroke-linecap="round" stroke-linejoin="round" stroke-miterlimit="10" stroke-width="2"/><path d="M0,.5H11.844" transform="translate(62.184 61.846)" fill="none" stroke="#3b3d52" stroke-linecap="round" stroke-linejoin="round" stroke-miterlimit="10" stroke-width="2"/><path d="M0,.5H11.844" transform="translate(62.184 65.48)" fill="none" stroke="#3b3d52" stroke-linecap="round" stroke-linejoin="round" stroke-miterlimit="10" stroke-width="2"/></g></svg>