<svg xmlns="http://www.w3.org/2000/svg" width="93.509" height="73.348" viewBox="0 0 93.509 73.348"><g transform="translate(0.555 0)"><path d="M9.674,7.662l14.96-6.384a15.921,15.921,0,0,1,12.474-.011l46.147,19.6a15.924,15.924,0,0,1,9.7,14.656v21.39A15.923,15.923,0,0,1,77.03,72.835H15.924A15.924,15.924,0,0,1,0,56.911v-34.6A15.923,15.923,0,0,1,9.674,7.662" transform="translate(0 0)" fill="#fef0e5"/><path d="M0,2.665H12.437V0H0Z" transform="translate(31.092 70.18)" fill="#fff"/><g transform="translate(0.445 22.209)"><g transform="translate(10.827 16.656)"><path d="M22.209,0A11.1,11.1,0,0,1,11.1,11.1,11.1,11.1,0,0,1,0,0" transform="translate(0 0)" fill="#fff"/><path d="M22.209,0A11.1,11.1,0,0,1,11.1,11.1,11.1,11.1,0,0,1,0,0" transform="translate(0 0)" fill="none" stroke="#e94200" stroke-linecap="round" stroke-linejoin="round" stroke-miterlimit="10" stroke-width="2"/></g><g transform="translate(9.938 3.775)"><path d="M0,11.993a11.993,11.993,0,0,1,23.985,0" transform="translate(0 0)" fill="#fff"/><path d="M0,11.993a11.993,11.993,0,0,1,23.985,0" transform="translate(0 0)" fill="none" stroke="#e94200" stroke-linecap="round" stroke-linejoin="round" stroke-miterlimit="10" stroke-width="2"/></g><path d="M0,.5H25.762" transform="translate(9.05 15.49)" fill="none" stroke="#e94200" stroke-linecap="round" stroke-linejoin="round" stroke-miterlimit="10" stroke-width="2"/><path d="M.5,0V6.218" transform="translate(25.873 5.33)" fill="none" stroke="#e94200" stroke-linecap="round" stroke-linejoin="round" stroke-miterlimit="10" stroke-width="2"/><path d="M.5,0V6.218" transform="translate(16.989 5.33)" fill="none" stroke="#e94200" stroke-linecap="round" stroke-linejoin="round" stroke-miterlimit="10" stroke-width="2"/><g transform="translate(0 27.983)"><path d="M43.529,21.764A21.764,21.764,0,1,0,0,21.764" transform="translate(0 0)" fill="#fff"/><path d="M43.529,21.764A21.764,21.764,0,1,0,0,21.764" transform="translate(0 0)" fill="none" stroke="#e94200" stroke-linecap="round" stroke-linejoin="round" stroke-miterlimit="10" stroke-width="2"/></g><path d="M0,10.66H22.209V0H0Z" transform="translate(11.104 39.087)" fill="none" stroke="#e94200" stroke-linecap="round" stroke-linejoin="round" stroke-miterlimit="10" stroke-width="2"/><path d="M.5,0V13.325" transform="translate(14.158 29.315)" fill="none" stroke="#e94200" stroke-linecap="round" stroke-linejoin="round" stroke-miterlimit="10" stroke-width="2"/><path d="M.5,0V13.325" transform="translate(28.371 29.315)" fill="none" stroke="#e94200" stroke-linecap="round" stroke-linejoin="round" stroke-miterlimit="10" stroke-width="2"/><path d="M22.209,11.1A11.1,11.1,0,1,1,11.1,0,11.1,11.1,0,0,1,22.209,11.1Z" transform="translate(55.244 5.552)" fill="none" stroke="#3b3d52" stroke-linecap="round" stroke-linejoin="round" stroke-miterlimit="10" stroke-width="2"/><path d="M43.529,21.764A21.764,21.764,0,1,0,0,21.764" transform="translate(44.417 27.983)" fill="none" stroke="#3b3d52" stroke-linecap="round" stroke-linejoin="round" stroke-miterlimit="10" stroke-width="2"/><path d="M14.213,14.213A14.213,14.213,0,0,1,0,0" transform="translate(62.628 6.218)" fill="none" stroke="#3b3d52" stroke-linecap="round" stroke-linejoin="round" stroke-miterlimit="10" stroke-width="2"/><path d="M0,12.375A14.209,14.209,0,0,0,7.215,0" transform="translate(55.413 6.218)" fill="none" stroke="#3b3d52" stroke-linecap="round" stroke-linejoin="round" stroke-miterlimit="10" stroke-width="2"/><path d="M8.883,4.442A4.442,4.442,0,1,1,4.442,0,4.441,4.441,0,0,1,8.883,4.442Z" transform="translate(71.512)" fill="none" stroke="#3b3d52" stroke-linecap="round" stroke-linejoin="round" stroke-miterlimit="10" stroke-width="2"/><path d="M0,.5H3.553" transform="translate(75.953 40.364)" fill="none" stroke="#3b3d52" stroke-linecap="round" stroke-linejoin="round" stroke-miterlimit="10" stroke-width="2"/><path d="M0,0,5.33,5.33,10.66,0" transform="translate(60.852 29.315)" fill="none" stroke="#3b3d52" stroke-linecap="round" stroke-linejoin="round" stroke-miterlimit="10" stroke-width="2"/><path d="M.5,0V14.213" transform="translate(65.682 34.645)" fill="none" stroke="#3b3d52" stroke-linecap="round" stroke-linejoin="round" stroke-miterlimit="10" stroke-width="2"/><path d="M0,20.123,8,8.574,4.442,6.8H10.66L8.3,0" transform="translate(66.182 29.624)" fill="none" stroke="#3b3d52" stroke-linecap="round" stroke-linejoin="round" stroke-miterlimit="10" stroke-width="2"/><path d="M10.66,20.123l-8-11.548L6.218,6.8H0L2.356,0" transform="translate(55.521 29.624)" fill="none" stroke="#3b3d52" stroke-linecap="round" stroke-linejoin="round" stroke-miterlimit="10" stroke-width="2"/></g></g></svg>