<svg xmlns="http://www.w3.org/2000/svg" width="41.192" height="47.6" viewBox="0 0 41.192 47.6"><g transform="translate(0)"><ellipse cx="11.442" cy="1.831" rx="11.442" ry="1.831" transform="translate(9.154 43.938)" fill="#d8d8d8"/><path d="M20.6,44.673a1.847,1.847,0,0,1-1.185-.429,62.106,62.106,0,0,0-8.546-5.823,22.683,22.683,0,0,1-7.782-7.447A19.8,19.8,0,0,1,0,20.417,20.2,20.2,0,0,1,6.033,5.981a20.722,20.722,0,0,1,29.127,0,20.2,20.2,0,0,1,6.032,14.437,19.83,19.83,0,0,1-3.055,10.531A22.581,22.581,0,0,1,30.364,38.4a62.893,62.893,0,0,0-8.582,5.845A1.845,1.845,0,0,1,20.6,44.673Zm0-30.027a5.95,5.95,0,1,0,5.951,5.95A5.957,5.957,0,0,0,20.6,14.646Z" fill="#e94200"/></g></svg>