<svg xmlns="http://www.w3.org/2000/svg" xmlns:xlink="http://www.w3.org/1999/xlink" width="1245.001" height="685.001" viewBox="0 0 1245.001 685.001"><defs><filter id="a" x="0" y="0" width="1245.001" height="685.001" filterUnits="userSpaceOnUse"><feOffset input="SourceAlpha"/><feGaussianBlur stdDeviation="7.5" result="b"/><feFlood flood-opacity="0.149"/><feComposite operator="in" in2="b"/><feComposite in="SourceGraphic"/></filter></defs><g transform="matrix(1, 0, 0, 1, 0, 0)" filter="url(#a)"><path d="M9876-1971.5H9108a6.008,6.008,0,0,1-6-6v-628a6.008,6.008,0,0,1,6-6h768a17.366,17.366,0,0,0,1.378,6.806,17.479,17.479,0,0,0,3.754,5.563,17.483,17.483,0,0,0,5.563,3.754A17.349,17.349,0,0,0,9893.5-2594a17.521,17.521,0,0,0,17.5-17.5h385a6.008,6.008,0,0,1,6,6v628a6.008,6.008,0,0,1-6,6H9911a17.366,17.366,0,0,0-1.378-6.806,17.48,17.48,0,0,0-3.754-5.563,17.481,17.481,0,0,0-5.563-3.754A17.349,17.349,0,0,0,9893.5-1989a17.521,17.521,0,0,0-17.5,17.5Z" transform="translate(-9079.5 2634)" fill="#fff"/></g></svg>