<svg xmlns="http://www.w3.org/2000/svg" width="202.789" height="50.944" viewBox="0 0 202.789 50.944"><path d="M1168.463,1046.673a3.4,3.4,0,0,0,.935,2.541,3.153,3.153,0,0,0,4.45,0,3.9,3.9,0,0,0,.009-5.08,3.029,3.029,0,0,0-2.193-.92,3.148,3.148,0,0,0-2.266.9,3.387,3.387,0,0,0-.935,2.558m9.618,0a6.519,6.519,0,0,1-1.807,4.76,6.236,6.236,0,0,1-4.665,1.848,6.971,6.971,0,0,1-2.418-.419,6.378,6.378,0,0,1-2.049-1.219,5.542,5.542,0,0,1-1.438-2.084,7.486,7.486,0,0,1-.531-2.886,6.794,6.794,0,0,1,.953-3.649,5.91,5.91,0,0,1,2.4-2.257,6.955,6.955,0,0,1,3.138-.72,6.691,6.691,0,0,1,2.365.428,6.512,6.512,0,0,1,2.049,1.229,5.74,5.74,0,0,1,1.456,2.084A7.279,7.279,0,0,1,1178.081,1046.673Zm8.811-.891,4.979-5.516h1.169v12.779h-3.29v-5.88l-2.679,2.84h-.377l-2.679-2.84v5.88h-3.29v-12.779h1.169Zm17.34-5.48v2.895h-4.566v1.82h4.207v2.913h-4.207v2.076h4.728v3.04h-8.018V1040.3Zm13.625,12.743h-3.289v-5.1h-3.9v5.1h-3.29V1040.3h3.29v4.606h3.9V1040.3h3.289Zm8.038-9.884-.574,5.551a2.234,2.234,0,0,1-.576,1.583h3.7v-7.135Zm-5.591,7.063h.468a1.163,1.163,0,0,0,.952-.356,2.787,2.787,0,0,0,.36-1.265l.953-8.3h8.683v9.922h1.259v4.315h-2.661v-1.493H1222.8v1.493h-2.5Zm21.019-4.624-1.294,3.077h2.607Zm2.355,5.863h-4.71l-.719,1.583h-3.434v-.455l5.771-12.415h1.51l5.718,12.415v.455h-3.4Zm16.7,1.583h-3.29v-5.1h-3.9v5.1h-3.29V1040.3h3.29v4.606h3.9V1040.3h3.29Zm5.449-9.831h-3.092V1040.3h9.348v2.913h-3.073v9.83h-3.182Zm7.921,3.478a7.164,7.164,0,0,1,.548-2.858,5.511,5.511,0,0,1,1.465-2.058,6.57,6.57,0,0,1,2.049-1.192,6.922,6.922,0,0,1,2.373-.41,7.039,7.039,0,0,1,2.581.474A5.447,5.447,0,0,1,1286.1,1045h-3.165a2.613,2.613,0,0,0-2.75-1.821,2.926,2.926,0,0,0-2.282.956,4,4,0,0,0,.009,4.979,2.849,2.849,0,0,0,2.274,1.019,3.08,3.08,0,0,0,1.8-.51,2.5,2.5,0,0,0,.989-1.511h3.163a5.812,5.812,0,0,1-1.168,2.9,5.3,5.3,0,0,1-2.149,1.665,6.945,6.945,0,0,1-2.634.491,6.8,6.8,0,0,1-2.365-.419,6.663,6.663,0,0,1-2.058-1.2,5.516,5.516,0,0,1-1.465-2.048A7,7,0,0,1,1273.749,1046.692Zm22.544,6.353-2.75-4.915a13.879,13.879,0,0,1-1.565.055v4.86h-3.29V1040.3h3.29v4.989a4.989,4.989,0,0,0,1.834-.2,1.332,1.332,0,0,0,.611-.737,14.3,14.3,0,0,0,.521-1.848,3.039,3.039,0,0,1,1.412-1.966,4.341,4.341,0,0,1,3.137-.218v2.238q-1.276-.09-1.528.91a8.527,8.527,0,0,1-1.546,3.387l3.6,5.7v.491Zm13.658-6.572-6.615,6.608h-.971V1040.3h3.289v6.227l6.563-6.281h1.025v12.8h-3.29Zm10.411-7.6a3.553,3.553,0,0,0,4.377,0,3.152,3.152,0,0,0,.819-2.213q-1.206-.145-1.781-.182-.144.966-1.276.966-1.115,0-1.169-.966l-1.78.182A3.071,3.071,0,0,0,1320.361,1038.874Zm-3.793,14.207V1040.3h3.289v6.226l6.563-6.28h1.025v12.8h-3.29v-6.572l-6.616,6.608Zm-42.409,20.731-1.4-2.506a6.91,6.91,0,0,1-.8.028v2.478h-1.677v-6.5h1.677v2.542a2.551,2.551,0,0,0,.935-.1.685.685,0,0,0,.313-.376,7.61,7.61,0,0,0,.265-.942,1.557,1.557,0,0,1,.72-1,2.21,2.21,0,0,1,1.6-.111v1.141c-.434-.031-.693.124-.779.464a4.344,4.344,0,0,1-.787,1.726l1.833,2.9v.251Zm6.552-2.589h-1.283v1.077h1.292c.293,0,.459-.168.5-.5a.545.545,0,0,0-.124-.4A.47.47,0,0,0,1280.711,1071.223Zm-.248-2.46h-1.035v1.086h1.035a.45.45,0,0,0,.358-.147.578.578,0,0,0,.137-.363.6.6,0,0,0-.124-.4A.444.444,0,0,0,1280.464,1068.764Zm2.145.52a1.529,1.529,0,0,1-.532,1.123,1.371,1.371,0,0,1,.591.565,1.679,1.679,0,0,1,.207.826,1.962,1.962,0,0,1-.537,1.421,1.984,1.984,0,0,1-1.5.556h-3.088v-6.486h2.832a2.011,2.011,0,0,1,1.461.547A1.928,1.928,0,0,1,1282.608,1069.284Zm4.719.733-.66,1.568H1288Zm1.2,2.988h-2.4l-.367.807h-1.751v-.232l2.943-6.329h.769l2.915,6.329v.232H1288.9Zm5.315-2.357h1.182a.587.587,0,0,0,.5-.283,1.148,1.148,0,0,0,.193-.664,1.127,1.127,0,0,0-.184-.645.582.582,0,0,0-.512-.274h-1.182Zm.028,3.156h-1.678v-6.5h2.832a2.107,2.107,0,0,1,1.7.728,2.676,2.676,0,0,1-.014,3.384,2.118,2.118,0,0,1-1.691.7h-1.154Zm6.423-5h-1.577v-1.485h4.767v1.485h-1.568v5.012h-1.621Zm7.018,1.216-.66,1.568h1.329Zm1.2,2.988h-2.4l-.367.807h-1.751v-.232l2.943-6.329h.77l2.914,6.329v.232h-1.732Zm6.249-4.176-.248,2.978a3.519,3.519,0,0,1-.344,1.4,1.228,1.228,0,0,1-.815.589,3.7,3.7,0,0,1-1.462-.023l.028-1.216a.959.959,0,0,0,.7-.112,1.159,1.159,0,0,0,.224-.7l.448-4.436h4.528v6.5h-1.668v-4.983Zm7.6,8.1h-57.365V1064.5h57.365Zm-61.368-5.281a2.36,2.36,0,0,1-1.748.8v-2.036h.833l-1.614-2.433-1.613,2.433h.833v3.958h-1.849v-7.409h3.228a2.4,2.4,0,0,1,1.944.831,2.848,2.848,0,0,1,.679,1.953A2.814,2.814,0,0,1,1260.991,1071.645Zm-9.761.9a1.292,1.292,0,0,0,.762.222,1.258,1.258,0,0,0,.744-.222.753.753,0,0,0,.314-.656v-4.923h1.892v4.965a2.236,2.236,0,0,1-.867,1.863,3.294,3.294,0,0,1-2.091.677,3.329,3.329,0,0,1-2.106-.677,2.231,2.231,0,0,1-.873-1.863v-4.965h1.913v4.923A.754.754,0,0,0,1251.23,1072.546Zm-6.512,6.364h79.6v-16.393h-79.6Zm94.857-13.2h-10.235v-2.8h7.471v-32.145H1139.549v32.145h99.866v2.8h-102.63v-37.743h202.789ZM1160.2,1053.045l-2.751-4.915a13.855,13.855,0,0,1-1.564.055v4.86h-3.29V1040.3h3.29v4.989a4.986,4.986,0,0,0,1.834-.2,1.33,1.33,0,0,0,.612-.737,14.45,14.45,0,0,0,.521-1.848,3.039,3.039,0,0,1,1.411-1.966,4.343,4.343,0,0,1,3.138-.218v2.238q-1.278-.09-1.529.91a8.522,8.522,0,0,1-1.547,3.387l3.6,5.7v.491Z" transform="translate(-1136.785 -1027.966)" fill="#fff"/></svg>