<svg xmlns="http://www.w3.org/2000/svg" width="184.717" height="61.888" viewBox="0 0 184.717 61.888"><g transform="translate(71.526 5.869)"><path d="M286.07,209.1a9,9,0,1,1-1.445-13.387l4.907-6.905a17.485,17.485,0,1,0,1.5,27.279Z" transform="translate(-214.81 -177.971)" fill="#bebebe"/><path d="M230.055,183.979l-4.891,6.886a9.613,9.613,0,0,1-.984,19.175V175.352h-8.145v7.594a17.482,17.482,0,0,0,0,34.964v7.873h8.145V217.91a17.472,17.472,0,0,0,5.875-33.931m-23.632,16.449a9.614,9.614,0,0,1,9.612-9.614V210.04a9.612,9.612,0,0,1-9.612-9.612" transform="translate(-198.555 -175.352)" fill="#bebebe"/><path d="M316.707,220.072h-8.895V186.5h8.895Zm1.132-16.784L329.873,186.5h9.257L327,203.048l12.771,17.025h-9.386l-12.541-16.784" transform="translate(-226.576 -178.212)" fill="#bebebe"/></g><path d="M134.871,186.4h35.041a31.027,31.027,0,0,0-18.318-16.724Z" transform="translate(-110.696 -168.027)" fill="#bebebe"/><path d="M163.29,190.758H120.582a2.464,2.464,0,0,1-1.742-4.207l18.785-18.784a30.936,30.936,0,0,0-34.541,37.3h43.17A2.465,2.465,0,0,1,148,209.274l-19.669,19.67a30.959,30.959,0,0,0,34.962-38.186Z" transform="translate(-102.357 -167.459)" fill="#bebebe"/><path d="M141.082,224.668H105.387a31.033,31.033,0,0,0,18.179,17.517Z" transform="translate(-103.134 -182.131)" fill="#bebebe"/></svg>