<svg xmlns="http://www.w3.org/2000/svg" width="20" height="20" viewBox="0 0 20 20"><g transform="translate(-1292 -4412)"><g transform="translate(1292 4412)" fill="none"><path d="M10,0A10,10,0,1,1,0,10,10,10,0,0,1,10,0Z" stroke="none"/><path d="M 10 1.5 C 5.313079833984375 1.5 1.5 5.313079833984375 1.5 10 C 1.5 14.68692016601563 5.313079833984375 18.5 10 18.5 C 14.68692016601563 18.5 18.5 14.68692016601563 18.5 10 C 18.5 5.313079833984375 14.68692016601563 1.5 10 1.5 M 10 0 C 15.52285003662109 0 20 4.477149963378906 20 10 C 20 15.52285003662109 15.52285003662109 20 10 20 C 4.477149963378906 20 0 15.52285003662109 0 10 C 0 4.477149963378906 4.477149963378906 0 10 0 Z" stroke="none" fill="#fff"/></g><g transform="translate(-0.77 -0.826)"><line y1="7" x2="6.77" transform="translate(1299.5 4419.326)" fill="none" stroke="#fff" stroke-linecap="round" stroke-width="1.5"/><g transform="translate(1298.77 4418.826)" fill="#fff" stroke="#fff" stroke-width="1"><circle cx="1" cy="1" r="1" stroke="none"/><circle cx="1" cy="1" r="0.5" fill="none"/></g><g transform="translate(1304.77 4424.826)" fill="#fff" stroke="#fff" stroke-width="1"><circle cx="1" cy="1" r="1" stroke="none"/><circle cx="1" cy="1" r="0.5" fill="none"/></g></g></g></svg>