<svg xmlns="http://www.w3.org/2000/svg" width="18.561" height="23.409" viewBox="0 0 18.561 23.409"><g transform="translate(-53.02)"><g transform="translate(53.02)"><g transform="translate(0)"><path d="M71.569,19.3,70.524,6.131A1.646,1.646,0,0,0,68.89,4.618H66.825V4.525a4.525,4.525,0,1,0-9.05,0v.093H55.711a1.646,1.646,0,0,0-1.634,1.512L53.031,19.306a3.812,3.812,0,0,0,3.8,4.1H67.769a3.812,3.812,0,0,0,3.8-4.1ZM59.147,4.525a3.154,3.154,0,0,1,6.307,0v.093H59.147ZM69.56,21.255a2.415,2.415,0,0,1-1.79.782H56.832A2.44,2.44,0,0,1,54.4,19.412L55.444,6.236a.269.269,0,0,1,.267-.247h2.065V7.677a.686.686,0,1,0,1.371,0V5.989h6.307V7.677a.686.686,0,0,0,1.371,0V5.989H68.89a.269.269,0,0,1,.267.249L70.2,19.41A2.415,2.415,0,0,1,69.56,21.255Z" transform="translate(-53.02)" fill="#fff"/></g></g><g transform="translate(59.011 11.425)"><g transform="translate(0)"><path d="M190.43,250.094a.685.685,0,0,0-.969,0l-3.061,3.061-1.177-1.177a.686.686,0,0,0-.97.97l1.662,1.662a.685.685,0,0,0,.969,0l3.546-3.546A.686.686,0,0,0,190.43,250.094Z" transform="translate(-184.052 -249.893)" fill="#fff"/></g></g></g></svg>