<svg xmlns="http://www.w3.org/2000/svg" width="14.735" height="18.142" viewBox="0 0 14.735 18.142"><g transform="translate(-2.965 0.25)"><g transform="translate(3.215)"><path d="M16.125,17.642H4.54a1.326,1.326,0,0,1-1.325-1.325V1.325A1.326,1.326,0,0,1,4.54,0h8.413a.265.265,0,1,1,0,.53H4.54a.8.8,0,0,0-.795.795V16.317a.8.8,0,0,0,.795.795H16.125a.8.8,0,0,0,.795-.795V4.612a.265.265,0,1,1,.53,0V16.318A1.326,1.326,0,0,1,16.125,17.642Z" transform="translate(-3.215)" fill="#e94808" stroke="#ea4d0f" stroke-width="0.5"/><path d="M26.307,5.74H21.4a.307.307,0,0,1-.307-.307V.524a.307.307,0,0,1,.615,0v4.6h4.6a.308.308,0,0,1,0,.615Z" transform="translate(-12.38 -0.102)" fill="#e94808" stroke="#ea4d0f" stroke-width="0.5"/><path d="M25.589,4.878a.265.265,0,0,1-.19-.08L21.168.451a.265.265,0,1,1,.38-.369l4.232,4.347a.265.265,0,0,1-.19.449Z" transform="translate(-11.619 -0.001)" fill="#e94808" stroke="#ea4d0f" stroke-width="0.5"/></g><line x2="7.635" transform="translate(6.294 14.5)" fill="none" stroke="#ea4d0f" stroke-linecap="round" stroke-width="1"/><line x2="7.635" transform="translate(6.294 11.5)" fill="none" stroke="#ea4d0f" stroke-linecap="round" stroke-width="1"/><line x2="7.635" transform="translate(6.294 8.5)" fill="none" stroke="#ea4d0f" stroke-linecap="round" stroke-width="1"/><line x2="3" transform="translate(6.294 5.5)" fill="none" stroke="#ea4d0f" stroke-linecap="round" stroke-width="1"/></g></svg>