<svg xmlns="http://www.w3.org/2000/svg" width="19.748" height="15.1" viewBox="0 0 19.748 15.1"><g transform="translate(0.15 -57.6)"><g transform="translate(0 57.75)"><path d="M17.074,57.75H2.378A2.38,2.38,0,0,0,0,60.128V70.172A2.38,2.38,0,0,0,2.378,72.55H17.07a2.38,2.38,0,0,0,2.378-2.378V60.132A2.378,2.378,0,0,0,17.074,57.75Zm1.292,12.422a1.293,1.293,0,0,1-1.292,1.292H2.378a1.293,1.293,0,0,1-1.292-1.292V60.132A1.293,1.293,0,0,1,2.378,58.84H17.07a1.293,1.293,0,0,1,1.292,1.292v10.04Z" transform="translate(0 -57.75)" fill="#e94200" stroke="#e94200" stroke-width="0.3"/><path d="M64.533,113.474l4.168-3.737a.477.477,0,0,0-.638-.709l-5.747,5.158-1.121-1s-.007-.007-.007-.011a.706.706,0,0,0-.078-.067l-4.562-4.083a.477.477,0,0,0-.635.712l4.217,3.769-4.2,3.931a.478.478,0,0,0-.021.673.487.487,0,0,0,.349.152.477.477,0,0,0,.324-.127l4.263-3.988L62,115.18a.475.475,0,0,0,.635,0l1.188-1.065,4.238,4.026a.477.477,0,0,0,.673-.018.478.478,0,0,0-.018-.673Z" transform="translate(-52.583 -106.182)" fill="#e94200" stroke="#e94200" stroke-width="0.3"/></g></g></svg>