<svg xmlns="http://www.w3.org/2000/svg" width="36" height="44" viewBox="0 0 36 44"><g transform="translate(-1282 -653)"><g transform="translate(1.831 -1.631)"><g transform="translate(1280.169 654.631)" fill="none" stroke="#fff" stroke-width="1.5"><rect width="30" height="40" rx="2" stroke="none"/><rect x="0.75" y="0.75" width="28.5" height="38.5" rx="1.25" fill="none"/></g><g transform="translate(1286.078 659.875)"><path d="M0,4.781v13.41H10.378V17.4H6.919V16.35H6.054V17.4H.865v-6.31H6.054v2.1h.865v-.526H12.4V11.88H6.919V7.147H6.054V10.3H.865V5.57H17.586v6.31H15.279V10.828h-.865v1.841h3.171v7.888H13.838V17.928h-.865v3.418h5.478V4.781Z" transform="translate(0 -4.781)" fill="#fff" stroke="#fff" stroke-width="0.5"/></g><line x2="17.591" transform="translate(1286.078 680.215)" fill="none" stroke="#fff" stroke-linecap="round" stroke-width="1.5"/><line x2="13.591" transform="translate(1286.078 684.784)" fill="none" stroke="#fff" stroke-linecap="round" stroke-width="1.5"/><line x2="10.708" transform="translate(1286.078 689.354)" fill="none" stroke="#fff" stroke-linecap="round" stroke-width="1.5"/></g><g transform="translate(0 -1)"><g transform="translate(-2 -1)"><g transform="translate(1305 684)" fill="#eb5418" stroke="#fff" stroke-width="1.5"><circle cx="7.5" cy="7.5" r="7.5" stroke="none"/><circle cx="7.5" cy="7.5" r="6.75" fill="none"/></g></g><g transform="translate(1277.476 686.206)"><path d="M34.732,7.237l-.117.463q-.527.2-.841.307a2.287,2.287,0,0,1-.729.106,1.489,1.489,0,0,1-.992-.3.961.961,0,0,1-.354-.765,2.62,2.62,0,0,1,.026-.368q.027-.188.086-.425l.439-1.5q.059-.216.1-.41a1.725,1.725,0,0,0,.04-.352.534.534,0,0,0-.123-.4.711.711,0,0,0-.47-.114,1.269,1.269,0,0,0-.349.052c-.119.034-.222.067-.307.1l.117-.464q.432-.17.826-.291a2.545,2.545,0,0,1,.747-.121,1.452,1.452,0,0,1,.977.3.969.969,0,0,1,.343.77c0,.065-.008.181-.024.345a2.242,2.242,0,0,1-.088.454l-.437,1.5a3.87,3.87,0,0,0-.1.413,2.058,2.058,0,0,0-.043.35.5.5,0,0,0,.138.407.8.8,0,0,0,.478.108,1.424,1.424,0,0,0,.362-.054A2.07,2.07,0,0,0,34.732,7.237Zm.111-6.29a.864.864,0,0,1-.306.667,1.061,1.061,0,0,1-.737.276,1.073,1.073,0,0,1-.74-.276.863.863,0,0,1-.309-.667A.871.871,0,0,1,33.06.278a1.12,1.12,0,0,1,1.477,0A.872.872,0,0,1,34.843.947Z" transform="translate(0 0)" fill="#fff"/></g></g></g></svg>