<svg xmlns="http://www.w3.org/2000/svg" width="20" height="20" viewBox="0 0 20 20"><g transform="translate(0 20) rotate(-90)"><g transform="translate(20) rotate(90)" fill="none"><path d="M10,0A10,10,0,1,1,0,10,10,10,0,0,1,10,0Z" stroke="none"/><path d="M 10.00000095367432 1.000001907348633 C 5.037381172180176 1.000001907348633 1.000001907348633 5.037381172180176 1.000001907348633 10.00000095367432 C 1.000001907348633 14.96262073516846 5.037381172180176 19 10.00000095367432 19 C 14.96262073516846 19 19 14.96262073516846 19 10.00000095367432 C 19 5.037381172180176 14.96262073516846 1.000001907348633 10.00000095367432 1.000001907348633 M 10.00000095367432 1.9073486328125e-06 C 15.52285099029541 1.9073486328125e-06 20 4.477150917053223 20 10.00000095367432 C 20 15.52285099029541 15.52285099029541 20 10.00000095367432 20 C 4.477150917053223 20 1.9073486328125e-06 15.52285099029541 1.9073486328125e-06 10.00000095367432 C 1.9073486328125e-06 4.477150917053223 4.477150917053223 1.9073486328125e-06 10.00000095367432 1.9073486328125e-06 Z" stroke="none"/></g><g transform="translate(43.228 4.805) rotate(90)"><g transform="translate(-0.395 27.64)"><g transform="translate(0 0)"><path d="M11.159,31.769,5.812,27.854a.293.293,0,0,0-.346,0L.119,31.769a.293.293,0,1,0,.346.473l5.173-3.788,5.173,3.788a.293.293,0,0,0,.346-.473Z" transform="translate(0.001 -27.797)" stroke-width="0.4"/></g></g><g transform="translate(1.156 32.352)"><g transform="translate(0 0)"><path d="M64.356,232.543a.264.264,0,0,0-.273.254v4.036H61.9v-2.2a1.366,1.366,0,0,0-2.726,0v2.2H57V232.8a.273.273,0,0,0-.545,0v4.289a.264.264,0,0,0,.273.254H59.45a.265.265,0,0,0,.271-.234.178.178,0,0,0,0-.02v-2.457a.82.82,0,0,1,1.635,0v2.457a.174.174,0,0,0,0,.02.265.265,0,0,0,.271.234h2.725a.264.264,0,0,0,.273-.254V232.8A.264.264,0,0,0,64.356,232.543Z" transform="translate(-56.452 -232.543)" stroke-width="0.4"/></g></g></g></g></svg>