<svg xmlns="http://www.w3.org/2000/svg" width="22.747" height="23.673" viewBox="0 0 22.747 23.673"><g transform="translate(-9.974 0.25)"><g transform="translate(10.224)"><g transform="translate(0)"><path d="M21.348,0a11.123,11.123,0,0,0-8.172,18.669l-.62,4a.438.438,0,0,0,.634.456l3.586-1.857a11.022,11.022,0,0,0,4.573.981A11.124,11.124,0,0,0,21.348,0Zm0,21.372a10.156,10.156,0,0,1-4.4-.988.438.438,0,0,0-.389.007l-3.011,1.559.521-3.357a.438.438,0,0,0-.117-.37,10.248,10.248,0,1,1,7.391,3.15Z" transform="translate(-10.224)" fill="#e94200" stroke="#e94200" stroke-width="0.5"/></g></g><g transform="translate(19.202 3.085)"><path d="M206.776,70.708a1.984,1.984,0,1,0,1.984,1.984A1.986,1.986,0,0,0,206.776,70.708Zm0,3.219a1.235,1.235,0,1,1,1.235-1.235A1.236,1.236,0,0,1,206.776,73.927Z" transform="translate(-204.792 -70.708)" fill="#e94200" stroke="#e94200" stroke-width="0.5"/></g><g transform="translate(18.564 8.706)"><path d="M194.735,196.527h-.461v-6.646a.405.405,0,0,0-.405-.405h-3.89a.405.405,0,0,0-.405.405v1.347a.405.405,0,0,0,.405.405h.462v4.894h-.462a.405.405,0,0,0-.405.405v1.347a.405.405,0,0,0,.405.405h4.757a.405.405,0,0,0,.405-.405v-1.347A.405.405,0,0,0,194.735,196.527Zm-.405,1.347h-3.946v-.536h.462a.405.405,0,0,0,.405-.405v-5.7a.405.405,0,0,0-.405-.405h-.462v-.536h3.079v6.646a.405.405,0,0,0,.405.405h.462Z" transform="translate(-189.573 -189.476)" fill="#e94200" stroke="#e94200" stroke-width="0.5"/></g></g></svg>