<svg xmlns="http://www.w3.org/2000/svg" width="18.756" height="18.756" viewBox="0 0 18.756 18.756"><g transform="translate(0)"><g transform="translate(0)"><path d="M4.818,17.291H2.224a.744.744,0,0,1-.586-.279.766.766,0,0,1-.155-.642A8.1,8.1,0,0,1,9.192,9.96c.062,0,.124,0,.187,0s.126,0,.188,0a8.025,8.025,0,0,1,2.646.51A.733.733,0,1,0,12.728,9.1q-.182-.068-.366-.129a4.982,4.982,0,1,0-5.964,0,9.528,9.528,0,0,0-6.35,7.1,2.226,2.226,0,0,0,2.176,2.684H4.818a.733.733,0,1,0,0-1.465ZM5.862,4.982A3.517,3.517,0,1,1,9.55,8.495l-.171,0-.172,0A3.521,3.521,0,0,1,5.862,4.982Z" transform="translate(0)" fill="#bebebe"/><path d="M158.846,314.158a1.974,1.974,0,0,0-1.8-1.158h-2.29a1.94,1.94,0,0,0-1.833,1.238c-.038.1-.086.226-.135.373h-4.8a.733.733,0,0,0-.526.222l-1.259,1.3a.733.733,0,0,0,0,1.024l1.282,1.3a.733.733,0,0,0,.523.219H150.4a.733.733,0,0,0,0-1.465h-2.074l-.565-.575.544-.561h5.037a.733.733,0,0,0,.712-.558,6.056,6.056,0,0,1,.241-.754.48.48,0,0,1,.467-.3h2.286a.5.5,0,0,1,.465.291,4.732,4.732,0,0,1,.433,1.868,4.871,4.871,0,0,1-.43,1.9.5.5,0,0,1-.46.3h-2.314a.522.522,0,0,1-.472-.325,4.871,4.871,0,0,1-.227-.725.733.733,0,1,0-1.425.341,6.305,6.305,0,0,0,.3.943,1.976,1.976,0,0,0,1.825,1.231h2.317a1.964,1.964,0,0,0,1.8-1.18,6.342,6.342,0,0,0,.552-2.49A6.2,6.2,0,0,0,158.846,314.158Z" transform="translate(-140.651 -301.534)" fill="#bebebe"/><circle cx="0.733" cy="0.733" r="0.733" transform="translate(15.056 14.36)" fill="#bebebe"/></g></g></svg>