<svg xmlns="http://www.w3.org/2000/svg" width="31.562" height="16" viewBox="0 0 31.562 16"><g transform="translate(0 -85.26)"><path d="M74.933,101.246l.035-.009.03-.008.034-.012.03-.011.031-.014.03-.014.028-.017.029-.018.029-.022.025-.018c.015-.012.029-.025.043-.038l.008-.007.007-.008c.013-.014.026-.027.038-.042l.02-.026.02-.027.019-.031.016-.026c.006-.01.01-.021.015-.032l.013-.029c0-.01.008-.021.012-.032s.008-.021.011-.031.006-.022.008-.033.006-.021.008-.032,0-.026.006-.039,0-.018,0-.027,0-.045,0-.068V85.944a.684.684,0,0,0-.684-.684H53.221l-.039,0-.031,0-.035.005-.032.007-.032.008-.032.01-.032.012-.029.012-.032.015-.027.014-.031.019-.025.017-.029.021-.025.021-.024.022-.026.027-.013.013-.007.008-.025.031-.017.023-.02.031-.016.026c-.006.01-.011.021-.016.031l-.014.029c0,.01-.008.021-.012.031s-.008.021-.011.031-.006.021-.009.032-.006.022-.008.033,0,.021-.006.031,0,.024-.005.036,0,.02,0,.03,0,.026,0,.038,0,.007,0,.011v4.221a.684.684,0,0,0,1.369,0v-2.7l6.085,5.388a.692.692,0,0,0-.091.075l-5.995,5.995v-4.5a.684.684,0,0,0-1.369,0v.836H49.017a.684.684,0,1,0,0,1.369h3.536v3.945a.684.684,0,0,0,.684.684H74.8c.023,0,.045,0,.068,0l.031,0Zm-.818-2.324L68.12,92.928l-.012-.011,4.507-3.824a.684.684,0,1,0-.886-1.044l-7.7,6.533-8.984-7.954H74.115ZM60.886,93.9a.681.681,0,0,0,.119-.161L63.565,96a.685.685,0,0,0,.9.009L67.071,93.8a.687.687,0,0,0,.081.1l5.995,5.995H54.891Z" transform="translate(-43.922 0)" fill="#e94200"/><path d="M.684,157.045h11.56a.684.684,0,1,0,0-1.369H.684a.684.684,0,1,0,0,1.369Z" transform="translate(0 -63.99)" fill="#e94200"/><path d="M13.809,115.714H19a.684.684,0,1,0,0-1.369H13.809a.684.684,0,0,0,0,1.369Z" transform="translate(-11.927 -26.431)" fill="#e94200"/><path d="M5.7,226.51H.684a.684.684,0,0,0,0,1.369H5.7a.684.684,0,0,0,0-1.369Z" transform="translate(0 -128.359)" fill="#e94200"/></g></svg>