<svg xmlns="http://www.w3.org/2000/svg" width="26.665" height="13.616" viewBox="0 0 26.665 13.616"><g transform="translate(0.1 -85.16)"><path d="M70.637,98.665l.029-.007.025-.006.028-.01.025-.009.026-.012.025-.012.024-.014.024-.015.025-.018.021-.015c.012-.01.024-.021.036-.032l.006-.006.006-.007c.011-.011.022-.023.032-.035l.017-.022L71,98.421l.016-.026.013-.022c0-.009.009-.018.013-.027l.011-.024c0-.009.007-.018.01-.027s.007-.017.009-.026,0-.018.007-.027,0-.018.007-.027,0-.022,0-.033,0-.015,0-.023,0-.038,0-.057V85.834a.574.574,0,0,0-.574-.574H52.431l-.033,0-.026,0-.029,0-.027.006-.027.007-.026.008-.027.01-.025.01-.027.013-.022.012-.026.016-.021.014-.024.018-.021.018-.02.019-.022.023-.011.011-.006.007-.021.026-.015.019-.017.026-.013.022-.013.026-.012.024-.01.026c0,.009-.007.017-.009.026s-.005.018-.008.027-.005.018-.007.028,0,.017,0,.026,0,.02,0,.03,0,.017,0,.025,0,.021,0,.032,0,.006,0,.009v3.539a.574.574,0,0,0,1.148,0V87.108l5.1,4.518a.58.58,0,0,0-.076.063L53.02,96.716V92.944a.574.574,0,0,0-1.148,0v.7H48.907a.574.574,0,1,0,0,1.148h2.965V98.1a.574.574,0,0,0,.574.574H70.525l.057,0,.026,0Zm-.686-1.948L64.925,91.69l-.01-.009,3.779-3.206a.574.574,0,1,0-.743-.875l-6.457,5.478-7.533-6.67H69.951ZM58.859,92.5a.571.571,0,0,0,.1-.135l2.147,1.9a.574.574,0,0,0,.752.008l2.188-1.856a.576.576,0,0,0,.068.083l5.027,5.027H53.832Z" transform="translate(-44.634 0)" fill="#fff" stroke="#030048" stroke-width="0.2"/><path d="M.574,156.824h9.693a.574.574,0,1,0,0-1.148H.574a.574.574,0,1,0,0,1.148Z" transform="translate(0 -65.027)" fill="#fff" stroke="#030048" stroke-width="0.2"/><path d="M13.7,115.493h4.352a.574.574,0,0,0,0-1.148H13.7a.574.574,0,0,0,0,1.148Z" transform="translate(-12.121 -26.859)" fill="#fff" stroke="#030048" stroke-width="0.2"/><path d="M4.783,226.51H.574a.574.574,0,0,0,0,1.148H4.783a.574.574,0,0,0,0-1.148Z" transform="translate(0 -130.441)" fill="#fff" stroke="#030048" stroke-width="0.2"/></g></svg>