<svg xmlns="http://www.w3.org/2000/svg" width="12.883" height="18.322" viewBox="0 0 12.883 18.322"><g transform="translate(-76)"><g transform="translate(76)"><path d="M82.441,0a6.442,6.442,0,0,0-5.48,9.828l5.113,8.24a.537.537,0,0,0,.456.254h0a.537.537,0,0,0,.456-.261l4.983-8.32A6.443,6.443,0,0,0,82.441,0Zm4.611,9.19-4.53,7.564L77.874,9.263a5.371,5.371,0,1,1,9.179-.073Z" transform="translate(-76 0)" fill="#ea4f10"/></g><g transform="translate(79.221 3.221)"><path d="M169.221,90a3.221,3.221,0,1,0,3.221,3.221A3.224,3.224,0,0,0,169.221,90Zm0,5.375a2.154,2.154,0,1,1,2.151-2.154A2.156,2.156,0,0,1,169.221,95.375Z" transform="translate(-166 -90)" fill="#ea4f10"/></g></g></svg>