<svg xmlns="http://www.w3.org/2000/svg" width="20" height="20" viewBox="0 0 20 20"><g transform="translate(-1342 -1014)"><g transform="translate(1342 1014)" fill="none"><path d="M10,0A10,10,0,1,1,0,10,10,10,0,0,1,10,0Z" stroke="none"/><path d="M 10 1.5 C 5.313079833984375 1.5 1.5 5.313079833984375 1.5 10 C 1.5 14.68692016601563 5.313079833984375 18.5 10 18.5 C 14.68692016601563 18.5 18.5 14.68692016601563 18.5 10 C 18.5 5.313079833984375 14.68692016601563 1.5 10 1.5 M 10 0 C 15.52285003662109 0 20 4.477149963378906 20 10 C 20 15.52285003662109 15.52285003662109 20 10 20 C 4.477149963378906 20 0 15.52285003662109 0 10 C 0 4.477149963378906 4.477149963378906 0 10 0 Z" stroke="none" fill="#fff"/></g><path d="M7.513,51.721a.692.692,0,0,0-1.046,0c-.245.242-.489.485-.729.731a.144.144,0,0,1-.2.037c-.158-.086-.327-.156-.479-.251a7.586,7.586,0,0,1-1.829-1.664,4.333,4.333,0,0,1-.655-1.05.15.15,0,0,1,.037-.193c.245-.236.483-.479.723-.721a.7.7,0,0,0,0-1.071c-.191-.193-.382-.382-.573-.575s-.392-.4-.592-.592a.7.7,0,0,0-1.046,0c-.247.242-.483.491-.734.729a1.191,1.191,0,0,0-.374.8,3.4,3.4,0,0,0,.263,1.465,8.9,8.9,0,0,0,1.58,2.632,9.778,9.778,0,0,0,3.238,2.534,4.683,4.683,0,0,0,1.794.522,1.315,1.315,0,0,0,1.128-.429c.21-.234.446-.448.668-.672a.7.7,0,0,0,0-1.064Q8.1,52.306,7.513,51.721Z" transform="translate(1354.81 973.383) rotate(8)" fill="#fff"/></g></svg>