<svg xmlns="http://www.w3.org/2000/svg" width="70" height="70" viewBox="0 0 70 70"><g transform="translate(-718.5 -1009)"><g transform="translate(718.5 1009)" fill="none" stroke="#e94200" stroke-width="1.2"><circle cx="35" cy="35" r="35" stroke="none"/><circle cx="35" cy="35" r="34.4" fill="none"/></g><g transform="translate(735.392 1026.058)"><path d="M81.443,180.734a.7.7,0,1,0,.7.7A.7.7,0,0,0,81.443,180.734Zm0,0" transform="translate(-75.083 -168.066)"/><path d="M26,21.044a.7.7,0,0,0-.5-.205.708.708,0,0,0-.5.205l-.5.5-1.61-1.61A12.616,12.616,0,1,0,19.929,22.9l1.61,1.61-.5.5a.7.7,0,0,0,0,.991l8.861,8.86a3.5,3.5,0,1,0,4.955-4.955Zm-3.469,2.478-1.5-1.5c.174-.156.345-.317.51-.482s.326-.335.482-.51l1.5,1.5ZM4.691,20.549a11.213,11.213,0,1,1,15.858,0,11.207,11.207,0,0,1-15.858,0ZM25.5,22.531l1.982,1.982-2.973,2.973L22.531,25.5ZM33.87,33.87a2.1,2.1,0,0,1-2.973,0L25.5,28.477,28.478,25.5,33.87,30.9A2.1,2.1,0,0,1,33.87,33.87Zm0,0" transform="translate(-0.002 -0.001)"/><path d="M56.85,42.893a9.812,9.812,0,1,0,0,13.876,9.809,9.809,0,0,0,0-13.876Zm-.992,12.885a8.41,8.41,0,1,1,0-11.894,8.405,8.405,0,0,1,0,11.894Zm0,0" transform="translate(-37.293 -37.213)"/><path d="M91.531,80.043A7.006,7.006,0,0,0,84.9,84.788a.7.7,0,0,0,1.327.45,5.6,5.6,0,0,1,5.305-3.793.7.7,0,1,0,0-1.4Zm0,0" transform="translate(-78.913 -74.433)"/></g></g></svg>