<svg xmlns="http://www.w3.org/2000/svg" width="12.662" height="13.637" viewBox="0 0 12.662 13.637"><g transform="translate(-17.067)"><g transform="translate(17.067)"><g transform="translate(0)"><path d="M28.268,0a.487.487,0,0,0-.487.487V2.266A6.319,6.319,0,0,0,17.067,6.818a.487.487,0,1,0,.974,0A5.357,5.357,0,0,1,27.35,3.2l-2.158.719a.488.488,0,1,0,.308.925l2.922-.974a.487.487,0,0,0,.333-.464V.487A.487.487,0,0,0,28.268,0Z" transform="translate(-17.067)" fill="#e94200"/></g></g><g transform="translate(18.041 6.331)"><g transform="translate(0)"><path d="M62.4,221.867a.487.487,0,0,0-.487.487A5.357,5.357,0,0,1,52.6,225.97l2.158-.719a.488.488,0,1,0-.308-.925l-2.922.974a.487.487,0,0,0-.333.464v2.922a.487.487,0,0,0,.974,0v-1.779a6.319,6.319,0,0,0,10.715-4.552A.487.487,0,0,0,62.4,221.867Z" transform="translate(-51.198 -221.867)" fill="#e94200"/></g></g></g></svg>