<svg xmlns="http://www.w3.org/2000/svg" width="50" height="50" viewBox="0 0 50 50"><g transform="translate(-9036 1648)"><circle cx="25" cy="25" r="25" transform="translate(9036 -1648)" fill="#87b700"/><g transform="translate(9051.401 -1629.744)"><path d="M145.106,195.843a1.461,1.461,0,0,0,2.066,0l12.506-12.506a1.461,1.461,0,1,0-2.066-2.066l-11.473,11.473-4.679-4.679a1.461,1.461,0,0,0-2.066,2.066Z" transform="translate(-138.933 -180.809)" fill="#fff"/><path d="M145.682,195.838a1.485,1.485,0,0,1-1.057-.438l-5.712-5.712a1.495,1.495,0,1,1,2.114-2.114l4.655,4.655,11.449-11.449a1.495,1.495,0,1,1,2.114,2.114L146.739,195.4A1.485,1.485,0,0,1,145.682,195.838Zm-5.712-8.633a1.427,1.427,0,0,0-1.009,2.435l5.712,5.712a1.427,1.427,0,0,0,2.018,0L159.2,182.846a1.427,1.427,0,0,0-2.018-2.018l-11.5,11.5-4.7-4.7A1.417,1.417,0,0,0,139.971,187.2Z" transform="translate(-138.477 -180.342)" fill="#fff"/></g></g></svg>