<svg xmlns="http://www.w3.org/2000/svg" width="17.086" height="17.215" viewBox="0 0 17.086 17.215"><g transform="translate(88.284 -1899.289) rotate(45)"><g transform="translate(1287 1399)" fill="none" stroke="#fff" stroke-width="1.5"><circle cx="5.656" cy="5.656" r="5.656" stroke="none"/><circle cx="5.656" cy="5.656" r="4.906" fill="none"/></g><line x2="0.182" y2="6.168" transform="translate(1292.656 1409.797)" fill="none" stroke="#fff" stroke-linecap="round" stroke-width="1.5"/><g transform="matrix(0.777, -0.629, 0.629, 0.777, 1288.615, 1403.878)"><path d="M.494,2.583A.494.494,0,0,1,.039,1.9,3.111,3.111,0,0,1,4.112.246a.494.494,0,1,1-.385.909A2.123,2.123,0,0,0,.948,2.281.494.494,0,0,1,.494,2.583Z" transform="translate(0 0)" fill="#fff"/></g></g></svg>