<svg xmlns="http://www.w3.org/2000/svg" width="14.644" height="16" viewBox="0 0 14.644 16"><path d="M15.827,3.912a5.933,5.933,0,0,0-.668-2.663C13.8-.358,4.293-.475,3.213,1.25a7.658,7.658,0,0,0-.574,2.665.805.805,0,0,0-.713.8V6.277a.806.806,0,0,0,.528.756c-.073,2.464-.014,5.035.1,6.314,0,.987.663.823.663.823h.622v1.066A.887.887,0,0,0,4.807,16a.888.888,0,0,0,.973-.764V14.17H13.01v1.066a.887.887,0,0,0,.973.764.887.887,0,0,0,.972-.764V14.17h.2s.78.107.83-.358c0-1.275.08-4.1.014-6.768a.8.8,0,0,0,.566-.767V4.712A.8.8,0,0,0,15.827,3.912ZM5.535,1.479h7.3v1.1h-7.3Zm.1,11.433a1.038,1.038,0,1,1,1.038-1.038A1.038,1.038,0,0,1,5.64,12.912Zm7.158,0a1.038,1.038,0,1,1,1.038-1.038A1.039,1.039,0,0,1,12.8,12.912Zm1.319-4.543H4.255V3.2h9.862Z" transform="translate(-1.926 0)" fill="#bebebe"/></svg>