<svg xmlns="http://www.w3.org/2000/svg" width="20.854" height="12.77" viewBox="0 0 20.854 12.77"><path d="M17.208,7.674c-1.625-1.535-1.32-1.228.609-3.888,1.117-1.535,1.625-2.558,1.523-2.967S18.326.512,18.326.512H15.482a1.006,1.006,0,0,0-.406.1.762.762,0,0,0-.3.307s-.508,1.228-1.016,2.251c-1.219,2.251-1.828,2.353-2.031,2.251-.508-.307-.406-1.33-.406-1.944,0-2.149.3-2.967-.609-3.274A3.741,3.741,0,0,0,9.287,0,5.428,5.428,0,0,0,6.849.307c-.2.1-.508.512-.3.512a1.411,1.411,0,0,1,.914.409,2.864,2.864,0,0,1,.3,1.33s0,2.558-.508,2.865c-.406.307-.914-.2-2.031-2.251C4.615,2.149,4.107,1.023,4.107,1.023A1.473,1.473,0,0,0,3.9.716.627.627,0,0,0,3.5.512H.654a1,1,0,0,0-.609.2.8.8,0,0,0,0,.512S2.178,6.241,4.615,8.9a6.755,6.755,0,0,0,4.773,2.251h1.117s.406,0,.508-.2a.8.8,0,0,0,.2-.512s0-1.535.711-1.739,1.625,1.432,2.64,2.149c.812.512,1.219.409,1.219.409h2.64s1.32-.1.711-1.126C19.138,9.823,18.732,9.209,17.208,7.674Z" transform="translate(0.757 0.75)" fill="none" stroke="#bebebe" stroke-width="1.5"/></svg>