<svg xmlns="http://www.w3.org/2000/svg" width="8" height="13.201" viewBox="0 0 8 13.201">
  <path id="Walking_Copy_3" data-name="Walking Copy 3" d="M6.436,13.2a.752.752,0,0,1-.64-.356L3.691,9.583l-.26-.4L2.51,7.753a.949.949,0,0,1-.146-.779l.041-.2.487-2.326a2.978,2.978,0,0,0-1.1.92,3.663,3.663,0,0,0-.281,1.9.53.53,0,1,1-1.059,0A4.54,4.54,0,0,1,.888,4.825a4.127,4.127,0,0,1,1.683-1.41A2.969,2.969,0,0,1,3.9,3.1h.356a.861.861,0,0,1,.665.332.833.833,0,0,1,.162.716L4.687,5.783,4.5,6.571,4.241,7.646l2.826,4.38a.756.756,0,0,1-.6,1.174Zm-5.679,0a.756.756,0,0,1-.565-1.26l1.495-1.727.471-2.249,1.159,1.8-.184.941a.757.757,0,0,1-.17.35L1.335,12.93A.754.754,0,0,1,.757,13.2ZM7.47,7.25a.51.51,0,0,1-.128-.015,4.528,4.528,0,0,1-2.281-.989l-.049-.05.344-1.436a2.119,2.119,0,0,0,.447.73A3.8,3.8,0,0,0,7.584,6.2.529.529,0,0,1,7.47,7.25ZM4.678,2.7A1.349,1.349,0,1,1,6.034,1.349,1.35,1.35,0,0,1,4.678,2.7Z" transform="translate(0)" fill="#fff"/>
</svg>
