<svg xmlns="http://www.w3.org/2000/svg" width="33.318" height="41.5" viewBox="0 0 33.318 41.5"><g transform="translate(0.75 0.75)"><path d="M0,0H25.091a4,4,0,0,1,4,4V36a4,4,0,0,1-4,4H0a0,0,0,0,1,0,0V0A0,0,0,0,1,0,0Z" fill="none" stroke="#e94200" stroke-linecap="round" stroke-linejoin="round" stroke-miterlimit="10" stroke-width="1.5"/><path d="M16.364.5H0" transform="translate(6.364 4.955)" fill="none" stroke="#3b3d52" stroke-linecap="round" stroke-linejoin="round" stroke-miterlimit="10" stroke-width="1.5"/><path d="M10.909.5h0Z" transform="translate(9.091 8.591)" fill="none" stroke="#3b3d52" stroke-linecap="round" stroke-linejoin="round" stroke-miterlimit="10" stroke-width="1.5"/><path d="M.5,30.909v0Z" transform="translate(31.318 4.545)" fill="none" stroke="#3b3d52" stroke-linecap="round" stroke-linejoin="round" stroke-miterlimit="10" stroke-width="1.5"/><circle cx="3.636" cy="3.636" r="3.636" transform="translate(10.909 14.545)" fill="none" stroke="#3b3d52" stroke-linecap="round" stroke-linejoin="round" stroke-miterlimit="10" stroke-width="1.5"/><path d="M8.182,10c6.481,0,8.182-.719,8.182-2.727S14.71,0,8.182,0,0,5.264,0,7.273,1.7,10,8.182,10Z" transform="translate(6.364 21.818)" fill="none" stroke="#3b3d52" stroke-linecap="round" stroke-linejoin="round" stroke-miterlimit="10" stroke-width="1.5"/></g></svg>