<svg xmlns="http://www.w3.org/2000/svg" width="31.756" height="41.522" viewBox="0 0 31.756 41.522"><g transform="translate(-657.136 -2704.728)"><path d="M19.011-.022,3.778,0A3.894,3.894,0,0,0,0,4V36a3.894,3.894,0,0,0,3.778,4h22.67a3.894,3.894,0,0,0,3.778-4l.029-24.776Z" transform="translate(657.886 2705.5)" fill="none" stroke="#e94200" stroke-linecap="round" stroke-linejoin="round" stroke-miterlimit="10" stroke-width="1.5"/><path d="M0,0V11.227H11.227" transform="translate(676.886 2705.5)" fill="none" stroke="#e94200" stroke-linecap="round" stroke-linejoin="round" stroke-miterlimit="10" stroke-width="1.5"/><path d="M.864.5H0" transform="translate(665.659 2723)" fill="none" stroke="#3b3d52" stroke-linecap="round" stroke-linejoin="round" stroke-miterlimit="10" stroke-width="1.5"/><path d="M.864.5H0" transform="translate(665.659 2730)" fill="none" stroke="#3b3d52" stroke-linecap="round" stroke-linejoin="round" stroke-miterlimit="10" stroke-width="1.5"/><path d="M.864.5H0" transform="translate(665.659 2716.818)" fill="none" stroke="#3b3d52" stroke-linecap="round" stroke-linejoin="round" stroke-miterlimit="10" stroke-width="1.5"/><path d="M11.227.5H0" transform="translate(669.977 2723)" fill="none" stroke="#3b3d52" stroke-linecap="round" stroke-linejoin="round" stroke-miterlimit="10" stroke-width="1.5"/><path d="M11.227.5H0" transform="translate(669.977 2730)" fill="none" stroke="#3b3d52" stroke-linecap="round" stroke-linejoin="round" stroke-miterlimit="10" stroke-width="1.5"/><path d="M.864.5H0" transform="translate(665.659 2737.182)" fill="none" stroke="#3b3d52" stroke-linecap="round" stroke-linejoin="round" stroke-miterlimit="10" stroke-width="1.5"/><path d="M11.227.5H0" transform="translate(669.977 2737.182)" fill="none" stroke="#3b3d52" stroke-linecap="round" stroke-linejoin="round" stroke-miterlimit="10" stroke-width="1.5"/><path d="M0,.5H0Z" transform="translate(669.977 2716.818)" fill="none" stroke="#3b3d52" stroke-linecap="round" stroke-linejoin="round" stroke-miterlimit="10" stroke-width="1.5"/></g></svg>